<svg xmlns="http://www.w3.org/2000/svg" width="939.45751953125" height="471.50286865234375" viewBox="-568.569580078125 -95.03343963623047 939.45751953125 471.50286865234375"><title>Neo4j Graph Visualization</title><desc>Created using Neo4j (http://www.neo4j.com/)</desc><g class="layer relationships"><g class="relationship" transform="translate(-524.5695934012699 93.28757833899641) rotate(359.344958497775)"><path class="outline" fill="#A5ABB6" stroke="none" d="M 9.869798890956295,38.766442574113995 L 10.835724717245364,38.50762352901147 A 167.49602554631244 167.49602554631244 0 0 0 151.95961108570597,161.37283475973973 L 151.83623591641407,162.365194859503 A 168.49602554631244 168.49602554631244 0 0 1 9.869798890956295,38.766442574113995 Z M 186.91712160680206,163.04520653397378 L 186.83229669792212,162.04881066142437 A 167.49602554631244 167.49602554631244 0 0 0 332.6116460306824,44.744962716739686 L 329.7461359282967,43.85678939293069 L 335.1616354699676,38.20680136514139 L 336.43232616719655,45.92919381515168 L 333.5668160648109,45.041020491342685 A 168.49602554631244 168.49602554631244 0 0 1 186.91712160680206,163.04520653397378"/><text text-anchor="middle" pointer-events="none" font-size="8px" fill="#000000" x="169.36862012576756" y="166.12093485742272" font-family="sans-serif">PATH_0</text></g><g class="relationship" transform="translate(-524.5695934012699 93.28757833899641) rotate(359.344958497775)"><path class="outline" fill="#A5ABB6" stroke="none" d="M 27.93071785686863,28.63782463805517 L 28.637824638055175,27.930717856868625 A 203.6278547824697 203.6278547824697 0 0 0 152.31421583694578,86.55651181509862 L 152.21447385529027,87.55152515023309 A 204.6278547824697 204.6278547824697 0 0 1 27.93071785686863,28.63782463805517 Z M 187.3005891872753,88.04496338809253 L 187.2288681226643,87.04753865965881 A 203.6278547824697 203.6278547824697 0 0 0 312.50500331842545,31.922921585004815 L 310.4441770840975,29.742785068200096 L 317.9354595633578,27.47768312437356 L 315.2527716308628,34.829770274077774 L 313.19194539653483,32.64963375727305 A 204.6278547824697 204.6278547824697 0 0 1 187.3005891872753,88.04496338809253"/><text text-anchor="middle" pointer-events="none" font-size="8px" fill="#000000" x="169.75396628327564" y="91.0517518863416" font-family="sans-serif">PATH_0</text></g><g class="relationship" transform="translate(-177.58832428434332 89.32049670155288) rotate(306.2127622792372)"><path class="outline" fill="#A5ABB6" stroke="none" d="M 34.39101615137755,-20.433012701892217 L 34.89101615137755,-19.566987298107776 A 119.56336826774934 119.56336826774934 0 0 1 79.92641033039483,-34.67259330202657 L 79.80307581608243,-35.66495845537453 A 120.56336826774934 120.56336826774934 0 0 0 34.39101615137755,-20.433012701892217 Z M 114.86236908711354,-34.88292881716046 L 114.69490803246696,-33.89705012524311 A 119.56336826774934 119.56336826774934 0 0 1 159.01195581142846,-16.79835608849493 L 157.39760043339757,-14.26974842548694 L 165.18109958811894,-13.45296148359085 L 161.164429648803,-20.16983297250559 L 159.55007427077211,-17.641225309497596 A 120.56336826774934 120.56336826774934 0 0 0 114.86236908711354,-34.88292881716046"/><text text-anchor="middle" pointer-events="none" font-size="8px" fill="#000000" x="97.35015764286655" y="-33.05558342848438" font-family="sans-serif">PATH_0</text></g><g class="relationship" transform="translate(-67.55287184883699 -60.95363923835072) rotate(398.788097090462)"><path class="outline" fill="#A5ABB6" stroke="none" d="M 24.018736134675446,6.953439040707552 L 24.277555179777966,5.987513214418485 A 370.2414754731221 370.2414754731221 0 0 0 94.75450192652931,17.734419857789305 L 94.68603688392392,18.73207337376624 A 371.2414754731221 371.2414754731221 0 0 1 24.018736134675446,6.953439040707552 Z M 129.75918977252303,19.47758559128482 L 129.73317950672194,18.47792391547995 A 370.2414754731221 370.2414754731221 0 0 0 200.64562718489907,9.73637927381282 L 199.99300559438524,6.808225408389216 L 207.58675646930647,8.70162120685114 L 201.51578930558418,13.640584427710959 L 200.86316771507035,10.712430562287354 A 371.2414754731221 371.2414754731221 0 0 1 129.75918977252303,19.47758559128482"/><text text-anchor="middle" pointer-events="none" font-size="8px" fill="#000000" x="112.22442791840548" y="22.019460795885436" font-family="sans-serif">PATH_0</text></g><g class="relationship" transform="translate(-524.5695934012699 93.28757833899641) rotate(359.344958497775)"><path class="outline" fill="#A5ABB6" stroke="none" d="M 38.50762352901147,10.835724717245364 L 38.766442574113995,9.869798890956295 A 517.1876705057484 517.1876705057484 0 0 0 152.47440815466257,27.099861085793577 L 152.43544733910633,28.09910182498072 A 518.1876705057484 518.1876705057484 0 0 1 38.50762352901147,10.835724717245364 Z M 187.5090130598243,28.278723525194096 L 187.480288811229,27.279136151553075 A 517.1876705057484 517.1876705057484 0 0 0 301.35876544919,11.214608821985102 L 300.61202894793064,8.309030635515683 L 308.26290396782855,9.956486683458158 L 302.35441411753584,15.088713070610996 L 301.6076776162765,12.183134884141577 A 518.1876705057484 518.1876705057484 0 0 1 187.5090130598243,28.278723525194096"/><text text-anchor="middle" pointer-events="none" font-size="8px" fill="#000000" x="169.9732706393967" y="30.98575271017728" font-family="sans-serif">PATH_0</text></g><g class="relationship" transform="translate(-177.58832428434332 89.32049670155288) rotate(306.2127622792372)"><path class="outline" fill="#A5ABB6" stroke="none" d="M 40 0.5 L 79.60297755659283 0.5 L 79.60297755659283 -0.5 L 40 -0.5 Z M 114.64985255659283 0.5 L 154.25283011318567 0.5 L 154.25283011318567 3.5 L 161.25283011318567 0 L 154.25283011318567 -3.5 L 154.25283011318567 -0.5 L 114.64985255659283 -0.5 Z"/><text text-anchor="middle" pointer-events="none" font-size="8px" fill="#000000" x="97.12641505659283" y="3" font-family="sans-serif">PATH_0</text></g><g class="relationship" transform="translate(-67.55287184883699 -60.95363923835072) rotate(367.3472651160811)"><path class="outline" fill="#A5ABB6" stroke="none" d="M 24.018736134675446,-6.953439040707552 L 24.277555179777966,-5.987513214418485 A 666.813971132735 666.813971132735 0 0 1 170.29635701136172,-28.1792665838924 L 170.2565177839489,-29.17847268673563 A 667.813971132735 667.813971132735 0 0 0 24.018736134675446,-6.953439040707552 Z M 205.3223832593071,-29.65505114526468 L 205.30971405324723,-28.65513140287635 A 666.813971132735 666.813971132735 0 0 1 351.8776850909067,-10.439910519046846 L 351.18026730415187,-7.5221016783723975 L 358.80214201693957,-9.298903823397943 L 352.80757547324646,-14.330322306612779 L 352.1101576864916,-11.41251346593833 A 667.813971132735 667.813971132735 0 0 0 205.3223832593071,-29.65505114526468"/><text text-anchor="middle" pointer-events="none" font-size="8px" fill="#000000" x="187.7931164928093" y="-26.14702573724435" font-family="sans-serif">PATH_0</text></g><g class="relationship" transform="translate(-524.5695934012699 93.28757833899641) rotate(359.344958497775)"><path class="outline" fill="#A5ABB6" stroke="none" d="M 38.50762352901147,-10.835724717245364 L 38.766442574113995,-9.869798890956295 A 517.1876705057484 517.1876705057484 0 0 1 152.47440815466229,-27.099861085793577 L 152.43544733910602,-28.09910182498072 A 518.1876705057484 518.1876705057484 0 0 0 38.50762352901147,-10.835724717245364 Z M 187.50901305982407,-28.278723525194096 L 187.4802888112288,-27.279136151553075 A 517.1876705057484 517.1876705057484 0 0 1 301.35876544919,-11.214608821985102 L 300.61202894793064,-8.309030635515683 L 308.26290396782855,-9.956486683458158 L 302.35441411753584,-15.088713070610996 L 301.6076776162765,-12.183134884141577 A 518.1876705057484 518.1876705057484 0 0 0 187.50901305982407,-28.278723525194096"/><text text-anchor="middle" pointer-events="none" font-size="8px" fill="#000000" x="169.97327063939645" y="-24.98575271017728" font-family="sans-serif">PATH_0</text></g><g class="relationship" transform="translate(-177.58832428434332 89.32049670155288) rotate(402.9073237472478)"><path class="outline" fill="#A5ABB6" stroke="none" d="M 9.869798890956295,-38.766442574113995 L 10.835724717245364,-38.50762352901147 A 128.94419126321534 128.94419126321534 0 0 1 114.84649659830731,-132.4321841237827 L 114.68720479610346,-133.41941566792553 A 129.94419126321534 129.94419126321534 0 0 0 9.869798890956295,-38.766442574113995 Z M 149.75148154535438,-134.2821286037662 L 149.64093229957922,-133.28825795611706 A 128.94419126321534 128.94419126321534 0 0 1 258.14485359028026,-44.59235717847594 L 255.28876670852196,-43.67433336405271 L 260.76292363756085,-38.081158423443796 L 261.9529694326246,-45.81638893104026 L 259.0968825508663,-44.89836511661702 A 129.94419126321534 129.94419126321534 0 0 0 149.75148154535438,-134.2821286037662"/><text text-anchor="middle" pointer-events="none" font-size="8px" fill="#000000" x="132.2023993312431" y="-131.53944092965085" font-family="sans-serif">PATH_0</text></g><g class="relationship" transform="translate(-524.5695934012699 93.28757833899641) rotate(359.344958497775)"><path class="outline" fill="#A5ABB6" stroke="none" d="M 27.93071785686863,-28.63782463805517 L 28.637824638055175,-27.930717856868625 A 203.6278547824697 203.6278547824697 0 0 1 141.61549063846886,-85.19702364700393 L 141.46320807875782,-86.18536064520234 A 204.6278547824697 204.6278547824697 0 0 0 27.93071785686863,-28.63782463805517 Z M 198.08602178300075,-86.98168309790185 L 197.96159316981482,-85.98945453541202 A 203.6278547824697 203.6278547824697 0 0 1 312.50500331842545,-31.922921585004815 L 310.4441770840975,-29.742785068200096 L 317.9354595633578,-27.47768312437356 L 315.2527716308628,-34.829770274077774 L 313.19194539653483,-32.64963375727305 A 204.6278547824697 204.6278547824697 0 0 0 198.08602178300075,-86.98168309790185"/><text text-anchor="middle" pointer-events="none" font-size="8px" fill="#000000" x="169.75396628327567" y="-85.0517518863416" font-family="sans-serif">MEMBER_OF</text></g><g class="relationship" transform="translate(-177.58832428434332 89.32049670155288) rotate(539.344958497775)"><path class="outline" fill="#A5ABB6" stroke="none" d="M 9.869798890956295,38.766442574113995 L 10.835724717245364,38.50762352901147 A 167.49602554631244 167.49602554631244 0 0 0 139.13002253436238,159.26935354558302 L 138.93005098906994,160.24915525055874 A 168.49602554631244 168.49602554631244 0 0 1 9.869798890956295,38.766442574113995 Z M 199.89561561098293,161.43091833514822 L 199.7337651819929,160.44410303397188 A 167.49602554631244 167.49602554631244 0 0 0 332.6116460306824,44.744962716739686 L 329.7461359282967,43.85678939293069 L 335.1616354699676,38.20680136514139 L 336.43232616719655,45.92919381515168 L 333.5668160648109,45.041020491342685 A 168.49602554631244 168.49602554631244 0 0 1 199.89561561098293,161.43091833514822"/><text text-anchor="middle" pointer-events="none" font-size="8px" fill="#000000" x="169.36862012576756" y="166.12093485742272" transform="rotate(180 169.36862012576756 163.12093485742272)" font-family="sans-serif">GENERIC_ALL</text></g><g class="relationship" transform="translate(-177.58832428434332 89.32049670155288) rotate(402.9073237472478)"><path class="outline" fill="#D9C8AE" stroke="none" d="M 27.93071785686863,-28.63782463805517 L 28.637824638055175,-27.930717856868625 A 150.96506978926405 150.96506978926405 0 0 1 99.70603140237552,-67.87031036294479 L 99.46968389592402,-68.84197895675348 A 151.96506978926405 151.96506978926405 0 0 0 27.93071785686863,-28.63782463805517 Z M 166.02270368620242,-70.02714571044413 L 165.8211017356993,-69.04767817471193 A 150.96506978926405 150.96506978926405 0 0 1 238.2662747798549,-31.66375161730009 L 236.22182782834903,-29.468247879549146 L 243.72985799319142,-27.259292686744885 L 240.9922040485294,-34.591089934301344 L 238.94775709702353,-32.395586196550404 A 151.96506978926405 151.96506978926405 0 0 0 166.02270368620242,-70.02714571044413"/><text text-anchor="middle" pointer-events="none" font-size="8px" fill="#000000" x="132.6894082672845" y="-69.62335249842366" font-family="sans-serif">WRITE_OWNER</text></g><g class="relationship" transform="translate(-177.58832428434332 89.32049670155288) rotate(402.9073237472478)"><path class="outline" fill="#A5ABB6" stroke="none" d="M 38.50762352901147,-10.835724717245364 L 38.766442574113995,-9.869798890956295 A 373.3102662362357 373.3102662362357 0 0 1 104.26217455163311,-21.290318211974295 L 104.17880134314754,-22.286836605234953 A 374.3102662362357 374.3102662362357 0 0 0 38.50762352901147,-10.835724717245364 Z M 161.76015614206975,-22.659728720178066 L 161.68969612717643,-21.662214115622703 A 373.3102662362357 373.3102662362357 0 0 1 227.32784536273905,-11.09090701750217 L 226.58898331309845,-8.183316456298463 L 234.23536701382113,-9.851493995208047 L 228.31299476225988,-14.967694432440446 L 227.57413271261927,-12.06010387123674 A 374.3102662362357 374.3102662362357 0 0 0 161.76015614206975,-22.659728720178066"/><text text-anchor="middle" pointer-events="none" font-size="8px" fill="#000000" x="132.96553544623683" y="-20.08219966138688" font-family="sans-serif">WRITE_DACL</text></g><g class="relationship" transform="translate(-177.58832428434332 89.32049670155288) rotate(402.9073237472478)"><path class="outline" fill="#A5ABB6" stroke="none" d="M 38.50762352901147,10.835724717245364 L 38.766442574113995,9.869798890956295 A 373.3102662362357 373.3102662362357 0 0 0 110.90069350298494,21.786163995474794 L 110.83510314043684,22.784010629151908 A 374.3102662362357 374.3102662362357 0 0 1 38.50762352901147,10.835724717245364 Z M 155.09797357272666,23.070653335399186 L 155.04531211472664,22.07204091266391 A 373.3102662362357 373.3102662362357 0 0 0 227.32784536273905,11.09090701750217 L 226.58898331309845,8.183316456298463 L 234.23536701382113,9.851493995208047 L 228.31299476225988,14.967694432440446 L 227.57413271261927,12.06010387123674 A 374.3102662362357 374.3102662362357 0 0 1 155.09797357272666,23.070653335399186"/><text text-anchor="middle" pointer-events="none" font-size="8px" fill="#000000" x="132.96553544623688" y="26.08219966138688" font-family="sans-serif">DC_SYNC</text></g><g class="relationship" transform="translate(-177.58832428434332 89.32049670155288) rotate(402.9073237472478)"><path class="outline" fill="#A5ABB6" stroke="none" d="M 27.93071785686863,28.63782463805517 L 28.637824638055175,27.930717856868625 A 150.96506978926405 150.96506978926405 0 0 0 99.91413502509458,67.92077294289834 L 99.67916600721007,68.89277580330275 A 151.96506978926405 151.96506978926405 0 0 1 27.93071785686863,28.63782463805517 Z M 165.8115458020938,70.07045185951065 L 165.611333367513,69.09069934941473 A 150.96506978926405 150.96506978926405 0 0 0 238.2662747798549,31.66375161730009 L 236.22182782834903,29.468247879549146 L 243.72985799319142,27.259292686744885 L 240.9922040485294,34.591089934301344 L 238.94775709702353,32.395586196550404 A 151.96506978926405 151.96506978926405 0 0 1 165.8115458020938,70.07045185951065"/><text text-anchor="middle" pointer-events="none" font-size="8px" fill="#000000" x="132.6894082672845" y="75.62335249842366" font-family="sans-serif">GET_CHANGES</text></g><g class="relationship" transform="translate(-177.58832428434332 89.32049670155288) rotate(402.9073237472478)"><path class="outline" fill="#A5ABB6" stroke="none" d="M 9.869798890956295,38.766442574113995 L 10.835724717245364,38.50762352901147 A 128.94419126321534 128.94419126321534 0 0 0 90.75167094724748,126.10696533388221 L 90.40551670932619,127.04514295223021 A 129.94419126321534 129.94419126321534 0 0 1 9.869798890956295,38.766442574113995 Z M 174.31726217942702,129.1096871264537 L 174.01766423208804,128.15562157841717 A 128.94419126321534 128.94419126321534 0 0 0 258.14485359028026,44.59235717847594 L 255.28876670852196,43.67433336405271 L 260.76292363756085,38.081158423443796 L 261.9529694326246,45.81638893104026 L 259.0968825508663,44.89836511661702 A 129.94419126321534 129.94419126321534 0 0 1 174.31726217942702,129.1096871264537"/><text text-anchor="middle" pointer-events="none" font-size="8px" fill="#000000" x="132.20239933124313" y="137.53944092965085" font-family="sans-serif">GET_CHANGES_ALL</text></g><g class="relationship" transform="translate(-177.58832428434332 89.32049670155288) rotate(306.2127622792372)"><path class="outline" fill="#A5ABB6" stroke="none" d="M 34.39101615137755,20.433012701892217 L 34.89101615137755,19.566987298107776 A 119.56336826774934 119.56336826774934 0 0 0 73.94701372110488,33.77539546603488 L 73.7736689344497,34.76025666688476 A 120.56336826774934 120.56336826774934 0 0 1 34.39101615137755,20.433012701892217 Z M 120.84543871098785,33.710277741072844 L 120.6283517234411,32.734125478442735 A 119.56336826774934 119.56336826774934 0 0 0 159.01195581142846,16.79835608849493 L 157.39760043339757,14.26974842548694 L 165.18109958811894,13.45296148359085 L 161.164429648803,20.16983297250559 L 159.55007427077211,17.641225309497596 A 120.56336826774934 120.56336826774934 0 0 1 120.84543871098785,33.710277741072844"/><text text-anchor="middle" pointer-events="none" font-size="8px" fill="#000000" x="97.35015764286656" y="39.05558342848438" font-family="sans-serif">ADMIN_TO</text></g><g class="relationship" transform="translate(124.686421935375 93.5449784413436) rotate(479.3911382601749)"><path class="outline" fill="#A5ABB6" stroke="none" d="M 40 0.5 L 58.16601534537675 0.5 L 58.16601534537675 -0.5 L 40 -0.5 Z M 143.30664034537676 0.5 L 161.4726556907535 0.5 L 161.4726556907535 3.5 L 168.4726556907535 0 L 161.4726556907535 -3.5 L 161.4726556907535 -0.5 L 143.30664034537676 -0.5 Z"/><text text-anchor="middle" pointer-events="none" font-size="8px" fill="#000000" x="100.73632784537675" y="3" transform="rotate(180 100.73632784537675 0)" font-family="sans-serif">GET_CHANGES_ALL</text></g><g class="relationship" transform="translate(326.88793547101534 -10.093844914912793) rotate(496.8678889238182)"><path class="outline" fill="#A5ABB6" stroke="none" d="M 40 0.5 L 171.90542445807515 0.5 L 171.90542445807515 -0.5 L 40 -0.5 Z M 238.36245570807515 0.5 L 370.2678801661503 0.5 L 370.2678801661503 3.5 L 377.2678801661503 0 L 370.2678801661503 -3.5 L 370.2678801661503 -0.5 L 238.36245570807515 -0.5 Z"/><text text-anchor="middle" pointer-events="none" font-size="8px" fill="#000000" x="205.13394008307515" y="3" transform="rotate(180 205.13394008307515 0)" font-family="sans-serif">GET_CHANGES</text></g><g class="relationship" transform="translate(-67.55287184883699 -60.95363923835072) rotate(367.3472651160811)"><path class="outline" fill="#A5ABB6" stroke="none" d="M 24.018736134675446,6.953439040707552 L 24.277555179777966,5.987513214418485 A 666.813971132735 666.813971132735 0 0 0 159.5044956084737,27.661386005054055 L 159.44847216496748,28.659815458634966 A 667.813971132735 667.813971132735 0 0 1 24.018736134675446,6.953439040707552 Z M 216.14053230840221,29.43031446864734 L 216.11166375714035,28.430731252127543 A 666.813971132735 666.813971132735 0 0 0 351.8776850909067,10.439910519046846 L 351.18026730415187,7.5221016783723975 L 358.80214201693957,9.298903823397943 L 352.80757547324646,14.330322306612779 L 352.1101576864916,11.41251346593833 A 667.813971132735 667.813971132735 0 0 1 216.14053230840221,29.43031446864734"/><text text-anchor="middle" pointer-events="none" font-size="8px" fill="#000000" x="187.79311649280956" y="32.14702573724435" font-family="sans-serif">MEMBER_OF</text></g><g class="relationship" transform="translate(-67.55287184883699 -60.95363923835072) rotate(398.788097090462)"><path class="outline" fill="#A5ABB6" stroke="none" d="M 24.018736134675446,-6.953439040707552 L 24.277555179777966,-5.987513214418485 A 370.2414754731221 370.2414754731221 0 0 1 83.99422801563031,-16.83816727910829 L 83.89670011912088,-17.83340007067136 A 371.2414754731221 371.2414754731221 0 0 0 24.018736134675446,-6.953439040707552 Z M 140.57696839499383,-19.03819145700919 L 140.5218186624651,-18.03971336160498 A 370.2414754731221 370.2414754731221 0 0 1 200.64562718489907,-9.73637927381282 L 199.99300559438524,-6.808225408389216 L 207.58675646930647,-8.70162120685114 L 201.51578930558418,-13.640584427710959 L 200.86316771507035,-10.712430562287354 A 371.2414754731221 371.2414754731221 0 0 0 140.57696839499383,-19.03819145700919"/><text text-anchor="middle" pointer-events="none" font-size="8px" fill="#000000" x="112.22442791840538" y="-16.019460795885436" font-family="sans-serif">MEMBER_OF</text></g></g><g class="layer nodes"><g class="node" transform="translate(-524.5695934012699,93.28757833899641)"><circle class="outline" cx="0" cy="0" r="40" fill="#D9C8AE" stroke="#c0a378" stroke-width="2px"/><text text-anchor="middle" pointer-events="none" font-family="sans-serif" dy="2.5" font-size="40" fill="#2A2C34"/><text text-anchor="middle" pointer-events="none" x="0" y="5" font-size="10px" fill="#2A2C34" font-family="sans-serif"> PiedadFlatley2…</text></g><g class="node" transform="translate(-177.58832428434332,89.32049670155288)"><circle class="outline" cx="0" cy="0" r="40" fill="#8DCC93" stroke="#5db665" stroke-width="2px"/><text text-anchor="middle" pointer-events="none" font-family="sans-serif" dy="2.5" font-size="40" fill="#2A2C34"/><text text-anchor="middle" pointer-events="none" font-family="sans-serif" dy="2.5" font-size="40" fill="#2A2C34"/><text text-anchor="middle" pointer-events="none" x="0" y="0" font-size="10px" fill="#2A2C34" font-family="sans-serif"> DOMAIN</text><text text-anchor="middle" pointer-events="none" x="0" y="10" font-size="10px" fill="#2A2C34" font-family="sans-serif"> ADMINS@Test…</text></g><g class="node" transform="translate(124.686421935375,93.5449784413436)"><circle class="outline" cx="0" cy="0" r="40" fill="#8DCC93" stroke="#5db665" stroke-width="2px"/><text text-anchor="middle" pointer-events="none" font-family="sans-serif" dy="2.5" font-size="40" fill="#2A2C34"/><text text-anchor="middle" pointer-events="none" font-family="sans-serif" dy="2.5" font-size="40" fill="#2A2C34"/><text text-anchor="middle" pointer-events="none" x="0" y="0" font-size="10px" fill="#2A2C34" font-family="sans-serif"> DOMAIN</text><text text-anchor="middle" pointer-events="none" x="0" y="10" font-size="10px" fill="#2A2C34" font-family="sans-serif"> CONTROLLE…</text></g><g class="node" transform="translate(326.88793547101534,-10.093844914912793)"><circle class="outline" cx="0" cy="0" r="40" fill="#8DCC93" stroke="#5db665" stroke-width="2px"/><text text-anchor="middle" pointer-events="none" font-family="sans-serif" dy="2.5" font-size="40" fill="#2A2C34"/><text text-anchor="middle" pointer-events="none" font-family="sans-serif" dy="2.5" font-size="40" fill="#2A2C34"/><text text-anchor="middle" pointer-events="none" font-family="sans-serif" dy="2.5" font-size="40" fill="#2A2C34"/><text text-anchor="middle" pointer-events="none" x="0" y="-5" font-size="10px" fill="#2A2C34" font-family="sans-serif"> ENTERPRISE</text><text text-anchor="middle" pointer-events="none" x="0" y="5" font-size="10px" fill="#2A2C34" font-family="sans-serif"> DOMAIN</text><text text-anchor="middle" pointer-events="none" x="0" y="15" font-size="10px" fill="#2A2C34" font-family="sans-serif"> CONTROLLE…</text></g><g class="node" transform="translate(22.374505149550487,275.18506172244645)"><circle class="outline" cx="0" cy="0" r="40" fill="#569480" stroke="#447666" stroke-width="2px"/><text text-anchor="middle" pointer-events="none" font-family="sans-serif" dy="2.5" font-size="40" fill="#FFFFFF"/><text text-anchor="middle" pointer-events="none" x="0" y="5" font-size="10px" fill="#FFFFFF" font-family="sans-serif"> TestCompany.L…</text></g><g class="node" transform="translate(-67.55287184883699,-60.95363923835072)"><circle class="outline" cx="0" cy="0" r="25" fill="#F16667" stroke="#eb2728" stroke-width="2px"/><text text-anchor="middle" pointer-events="none" font-family="sans-serif" dy="1.5625" font-size="25" fill="#FFFFFF"/><text text-anchor="middle" pointer-events="none" x="0" y="5" font-size="10px" fill="#FFFFFF" font-family="sans-serif"> FLLABD…</text></g></g></svg>