<svg xmlns="http://www.w3.org/2000/svg" width="531.8552856445312" height="244.0994110107422" viewBox="-189.5830535888672 0.19474411010742188 531.8552856445312 244.0994110107422"><title>Neo4j Graph Visualization</title><desc>Created using Neo4j (http://www.neo4j.com/)</desc><g class="layer relationships"><g class="relationship" transform="translate(-160.58305002477945 38.97399809824606) rotate(359.1621637055025)"><path class="outline" fill="#A5ABB6" stroke="none" d="M 25 0.5 L 42.35065335895737 0.5 L 42.35065335895737 -0.5 L 25 -0.5 Z M 99.02252835895737 0.5 L 116.37318171791475 0.5 L 116.37318171791475 3.5 L 123.37318171791475 0 L 116.37318171791475 -3.5 L 116.37318171791475 -0.5 L 99.02252835895737 -0.5 Z"/><text text-anchor="middle" pointer-events="none" font-size="8px" fill="#000000" x="70.68659085895737" y="3" font-family="sans-serif">MEMBER_OF</text></g><g class="relationship" transform="translate(-4.726533361454445 36.69474549250704) rotate(360.91525319502716)"><path class="outline" fill="#A5ABB6" stroke="none" d="M 32.5 0.5 L 52.55078667006515 0.5 L 52.55078667006515 -0.5 L 32.5 -0.5 Z M 99.74609917006515 0.5 L 119.7968858401303 0.5 L 119.7968858401303 3.5 L 126.7968858401303 0 L 119.7968858401303 -3.5 L 119.7968858401303 -0.5 L 99.74609917006515 -0.5 Z"/><text text-anchor="middle" pointer-events="none" font-size="8px" fill="#000000" x="76.14844292006515" y="3" font-family="sans-serif">ADMIN_TO</text></g><g class="relationship" transform="translate(154.55002866066621 39.23927467824294) rotate(447.49433326411355)"><path class="outline" fill="#A5ABB6" stroke="none" d="M 32.5 0.5 L 51.31040715365275 0.5 L 51.31040715365275 -0.5 L 32.5 -0.5 Z M 107.98228215365275 0.5 L 126.7926893073055 0.5 L 126.7926893073055 3.5 L 133.7926893073055 0 L 126.7926893073055 -3.5 L 126.7926893073055 -0.5 L 107.98228215365275 -0.5 Z"/><text text-anchor="middle" pointer-events="none" font-size="8px" fill="#000000" x="79.64634465365275" y="3" font-family="sans-serif">MEMBER_OF</text></g><g class="relationship" transform="translate(154.55002866066621 39.23927467824294) rotate(360.3202712640134)"><path class="outline" fill="#A5ABB6" stroke="none" d="M 32.5 0.5 L 43.77635605343971 0.5 L 43.77635605343971 -0.5 L 32.5 -0.5 Z M 100.44823105343971 0.5 L 111.72458710687943 0.5 L 111.72458710687943 3.5 L 118.72458710687943 0 L 111.72458710687943 -3.5 L 111.72458710687943 -0.5 L 100.44823105343971 -0.5 Z"/><text text-anchor="middle" pointer-events="none" font-size="8px" fill="#000000" x="72.11229355343971" y="3" font-family="sans-serif">MEMBER_OF</text></g><g class="relationship" transform="translate(-4.726533361454445 36.69474549250704) rotate(448.5071351195149)"><path class="outline" fill="#A5ABB6" stroke="none" d="M 32.5 0.5 L 47.00971549468018 0.5 L 47.00971549468018 -0.5 L 32.5 -0.5 Z M 132.15034049468017 0.5 L 146.66005598936036 0.5 L 146.66005598936036 3.5 L 153.66005598936036 0 L 146.66005598936036 -3.5 L 146.66005598936036 -0.5 L 132.15034049468017 -0.5 Z"/><text text-anchor="middle" pointer-events="none" font-size="8px" fill="#000000" x="89.58002799468018" y="3" font-family="sans-serif">GET_CHANGES_ALL</text></g></g><g class="layer nodes"><g class="node" transform="translate(-160.58305002477945,38.97399809824606)"><circle class="outline" cx="0" cy="0" r="25" fill="#DA7194" stroke="#cc3c6c" stroke-width="2px"/><text text-anchor="middle" pointer-events="none" font-family="sans-serif" dy="1.5625" font-size="25" fill="#FFFFFF"/><text text-anchor="middle" pointer-events="none" x="0" y="5" font-size="10px" fill="#FFFFFF" font-family="sans-serif"> PiedadF…</text></g><g class="node" transform="translate(-4.726533361454445,36.69474549250704)"><circle class="outline" cx="0" cy="0" r="32.5" fill="#FFC454" stroke="#d7a013" stroke-width="2px"/><text text-anchor="middle" pointer-events="none" font-family="sans-serif" dy="2.03125" font-size="32.5" fill="#2A2C34"/><text text-anchor="middle" pointer-events="none" font-family="sans-serif" dy="2.03125" font-size="32.5" fill="#2A2C34"/><text text-anchor="middle" pointer-events="none" x="0" y="0" font-size="10px" fill="#2A2C34" font-family="sans-serif"> DOMAIN</text><text text-anchor="middle" pointer-events="none" x="0" y="10" font-size="10px" fill="#2A2C34" font-family="sans-serif"> ADMINS@…</text></g><g class="node" transform="translate(161.82004508124976,205.37297197743771)"><circle class="outline" cx="0" cy="0" r="32.5" fill="#FFC454" stroke="#d7a013" stroke-width="2px"/><text text-anchor="middle" pointer-events="none" font-family="sans-serif" dy="2.03125" font-size="32.5" fill="#2A2C34"/><text text-anchor="middle" pointer-events="none" font-family="sans-serif" dy="2.03125" font-size="32.5" fill="#2A2C34"/><text text-anchor="middle" pointer-events="none" x="0" y="0" font-size="10px" fill="#2A2C34" font-family="sans-serif"> DOMAIN</text><text text-anchor="middle" pointer-events="none" x="0" y="10" font-size="10px" fill="#2A2C34" font-family="sans-serif"> CONTROL…</text></g><g class="node" transform="translate(305.77225321234914,40.08458366704531)"><circle class="outline" cx="0" cy="0" r="32.5" fill="#FFC454" stroke="#d7a013" stroke-width="2px"/><text text-anchor="middle" pointer-events="none" font-family="sans-serif" dy="2.03125" font-size="32.5" fill="#2A2C34"/><text text-anchor="middle" pointer-events="none" x="0" y="5" font-size="10px" fill="#2A2C34" font-family="sans-serif"> ENTERPRI…</text></g><g class="node" transform="translate(-0.07199949728961563,215.29416016296085)"><circle class="outline" cx="0" cy="0" r="25" fill="#A5ABB6" stroke="#9AA1AC" stroke-width="2px"/><text text-anchor="middle" pointer-events="none" font-family="sans-serif" dy="1.5625" font-size="25" fill="#FFFFFF"/><text text-anchor="middle" pointer-events="none" x="0" y="5" font-size="10px" fill="#FFFFFF" font-family="sans-serif"> TestCo…</text></g><g class="node" transform="translate(154.55002866066621,39.23927467824294)"><circle class="outline" cx="0" cy="0" r="32.5" fill="#569480" stroke="#447666" stroke-width="2px"/><text text-anchor="middle" pointer-events="none" font-family="sans-serif" dy="2.03125" font-size="32.5" fill="#FFFFFF"/><text text-anchor="middle" pointer-events="none" x="0" y="5" font-size="10px" fill="#FFFFFF" font-family="sans-serif"> FLLABDC…</text></g></g></svg>