<svg xmlns="http://www.w3.org/2000/svg" width="1098.593994140625" height="715.3235473632812" viewBox="-676.30126953125 -279.9503173828125 1098.593994140625 715.3235473632812"><title>Neo4j Graph Visualization</title><desc>Created using Neo4j (http://www.neo4j.com/)</desc><g class="layer relationships"><g class="relationship" transform="translate(-187.17439431030064 39.54113453911863) rotate(506.410391577203)"><path class="outline" fill="#A5ABB6" stroke="none" d="M 38.50762352901147,-10.835724717245364 L 38.766442574113995,-9.869798890956295 A 450.04435960863196 450.04435960863196 0 0 1 127.82780283779286,-24.36867816981521 L 127.76687841876925,-25.36682055202658 A 451.04435960863196 451.04435960863196 0 0 0 38.50762352901147,-10.835724717245364 Z M 188.9191490541601,-24.946018642834417 L 188.84449419071922,-23.948809210786862 A 450.04435960863196 450.04435960863196 0 0 1 277.69789018686885,-8.225660279636555 L 276.88162801010327,-5.3388426444573085 L 284.5698416984147,-6.8021848063800405 L 278.78623975588965,-12.074750459875549 L 277.9699775791241,-9.187932824696302 A 451.04435960863196 451.04435960863196 0 0 0 188.9191490541601,-24.946018642834417"/><text text-anchor="middle" pointer-events="none" font-size="8px" fill="#000000" x="158.34671309453228" y="-22.694022067345372" transform="rotate(180 158.34671309453228 -25.694022067345372)" font-family="sans-serif">GENERIC_ALL</text></g><g class="relationship" transform="translate(-187.17439431030064 39.54113453911863) rotate(536.4265073494098)"><path class="outline" fill="#A5ABB6" stroke="none" d="M 38.50762352901147,-10.835724717245364 L 38.766442574113995,-9.869798890956295 A 398.0181404821111 398.0181404821111 0 0 1 114.28496994887948,-22.481048918314286 L 114.21588729941784,-23.478659858282015 A 399.0181404821111 399.0181404821111 0 0 0 38.50762352901147,-10.835724717245364 Z M 175.36365397285232,-23.01622432832869 L 175.27949104155024,-22.019772321960772 A 398.0181404821111 398.0181404821111 0 0 1 250.59864414671034,-8.267798658984454 L 249.778448918515,-5.3820960083903895 L 257.4686495361291,-6.834960234961028 L 251.69223778430413,-12.115402193109874 L 250.8720425561088,-9.22969954251581 A 399.0181404821111 399.0181404821111 0 0 0 175.36365397285232,-23.01622432832869"/><text text-anchor="middle" pointer-events="none" font-size="8px" fill="#000000" x="144.79486101868267" y="-20.920542458948717" transform="rotate(180 144.79486101868267 -23.920542458948717)" font-family="sans-serif">GENERIC_ALL</text></g><g class="relationship" transform="translate(-187.17439431030064 39.54113453911863) rotate(202.6663017802236)"><path class="outline" fill="#A5ABB6" stroke="none" d="M 38.50762352901147,-10.835724717245364 L 38.766442574113995,-9.869798890956295 A 488.6739743882231 488.6739743882231 0 0 1 137.8757040957659,-25.753942898052514 L 137.81969769614082,-26.752373307846312 A 489.6739743882231 489.6739743882231 0 0 0 38.50762352901147,-10.835724717245364 Z M 198.97390907336268,-26.357920916613068 L 198.90502786495503,-25.360296047672705 A 488.6739743882231 488.6739743882231 0 0 1 297.8011420730433,-8.198992345852183 L 296.9873690360368,-5.311472052548395 L 304.67431826358654,-6.781441975054284 L 298.88617278905195,-12.049019403590567 L 298.07239975204544,-9.16149911028678 A 489.6739743882231 489.6739743882231 0 0 0 198.97390907336268,-26.357920916613068"/><text text-anchor="middle" pointer-events="none" font-size="8px" fill="#000000" x="168.3997423084528" y="-24.010785270931365" transform="rotate(180 168.3997423084528 -27.010785270931365)" font-family="sans-serif">GENERIC_ALL</text></g><g class="relationship" transform="translate(-187.17439431030064 39.54113453911863) rotate(359.2153212614296)"><path class="outline" fill="#DA7194" stroke="none" d="M 19.566987298107783,-34.89101615137754 L 20.433012701892224,-34.39101615137754 A 98.98911758286962 98.98911758286962 0 0 1 70.9305914106327,-77.4044402426396 L 70.57469863497747,-78.3389670385296 A 99.98911758286962 99.98911758286962 0 0 0 19.566987298107783,-34.89101615137754 Z M 136.5133611728344,-80.16714208019758 L 136.20979555809822,-79.21433154417804 A 98.98911758286962 98.98911758286962 0 0 1 189.01309496858445,-39.06496443999136 L 186.50212223446462,-37.42331407267595 L 193.26210794800704,-33.479636454931 L 192.36105861407756,-41.2538315964119 L 189.85008587995773,-39.61218122909649 A 99.98911758286962 99.98911758286962 0 0 0 136.5133611728344,-80.16714208019758"/><text text-anchor="middle" pointer-events="none" font-size="8px" fill="#000000" x="103.40278834834469" y="-81.347358472395" font-family="sans-serif">WRITE_OWNER</text></g><g class="relationship" transform="translate(-187.17439431030064 39.54113453911863) rotate(359.2153212614296)"><path class="outline" fill="#A5ABB6" stroke="none" d="M 34.39101615137755,-20.433012701892217 L 34.89101615137755,-19.566987298107776 A 142.53817415096924 142.53817415096924 0 0 1 75.46672325654474,-35.319587228515346 L 75.25138880208618,-36.29612758749856 A 143.53817415096924 143.53817415096924 0 0 0 34.39101615137755,-20.433012701892217 Z M 132.61893114175038,-37.203788696523915 L 132.43459810232451,-36.22092485520305 A 142.53817415096924 142.53817415096924 0 0 1 173.48834160855424,-21.759854501439754 L 172.0712846247097,-19.115625028693962 L 179.8943865422685,-18.89409311792686 L 175.37775092034693,-25.285493798434146 L 173.9606939365024,-22.641264325688354 A 143.53817415096924 143.53817415096924 0 0 0 132.61893114175038,-37.203788696523915"/><text text-anchor="middle" pointer-events="none" font-size="8px" fill="#000000" x="103.8972567588751" y="-36.1455815277029" font-family="sans-serif">WRITE_DACL</text></g><g class="relationship" transform="translate(-187.17439431030064 39.54113453911863) rotate(359.2153212614296)"><path class="outline" fill="#A5ABB6" stroke="none" d="M 40 0.5 L 81.96015538110623 0.5 L 81.96015538110623 -0.5 L 40 -0.5 Z M 126.19062413110623 0.5 L 168.15077951221247 0.5 L 168.15077951221247 3.5 L 175.15077951221247 0 L 168.15077951221247 -3.5 L 168.15077951221247 -0.5 L 126.19062413110623 -0.5 Z"/><text text-anchor="middle" pointer-events="none" font-size="8px" fill="#000000" x="104.07538975610623" y="3" font-family="sans-serif">DC_SYNC</text></g><g class="relationship" transform="translate(-187.17439431030064 39.54113453911863) rotate(359.2153212614296)"><path class="outline" fill="#A5ABB6" stroke="none" d="M 34.39101615137755,20.433012701892217 L 34.89101615137755,19.566987298107776 A 142.53817415096924 142.53817415096924 0 0 0 71.15450126927905,34.29816632105131 L 70.90891371235898,35.26754073369385 A 143.53817415096924 143.53817415096924 0 0 1 34.39101615137755,20.433012701892217 Z M 136.99177282614633,36.313094347192745 L 136.77697512663778,35.336435784395164 A 142.53817415096924 142.53817415096924 0 0 0 173.48834160855424,21.759854501439754 L 172.0712846247097,19.115625028693962 L 179.8943865422685,18.89409311792686 L 175.37775092034693,25.285493798434146 L 173.9606939365024,22.641264325688354 A 143.53817415096924 143.53817415096924 0 0 1 136.99177282614633,36.313094347192745"/><text text-anchor="middle" pointer-events="none" font-size="8px" fill="#000000" x="103.8972567588751" y="42.1455815277029" font-family="sans-serif">GET_CHANGES</text></g><g class="relationship" transform="translate(-187.17439431030064 39.54113453911863) rotate(359.2153212614296)"><path class="outline" fill="#A5ABB6" stroke="none" d="M 19.566987298107783,34.89101615137754 L 20.433012701892224,34.39101615137754 A 98.98911758286962 98.98911758286962 0 0 0 62.60411371552496,73.78808338581467 L 62.16410585834941,74.6860773087472 A 99.98911758286962 99.98911758286962 0 0 1 19.566987298107783,34.89101615137754 Z M 145.11343347375606,76.98587964978742 L 144.72385777603466,76.06488520043126 A 98.98911758286962 98.98911758286962 0 0 0 189.01309496858445,39.06496443999136 L 186.50212223446462,37.42331407267595 L 193.26210794800704,33.479636454931 L 192.36105861407756,41.2538315964119 L 189.85008587995773,39.61218122909649 A 99.98911758286962 99.98911758286962 0 0 1 145.11343347375606,76.98587964978742"/><text text-anchor="middle" pointer-events="none" font-size="8px" fill="#000000" x="103.40278834834471" y="87.347358472395" font-family="sans-serif">GET_CHANGES_ALL</text></g><g class="relationship" transform="translate(-187.17439431030064 39.54113453911863) rotate(202.6663017802236)"><path class="outline" fill="#A5ABB6" stroke="none" d="M 38.50762352901147,10.835724717245364 L 38.766442574113995,9.869798890956295 A 488.6739743882231 488.6739743882231 0 0 0 144.83089571155588,26.09439804459248 L 144.7891220969374,27.093525146177512 A 489.6739743882231 489.6739743882231 0 0 1 38.50762352901147,10.835724717245364 Z M 192.009465323965,26.788947965288685 L 191.95480672920166,25.790442863639953 A 488.6739743882231 488.6739743882231 0 0 0 297.8011420730433,8.198992345852183 L 296.9873690360368,5.311472052548395 L 304.67431826358654,6.781441975054284 L 298.88617278905195,12.049019403590567 L 298.07239975204544,9.16149911028678 A 489.6739743882231 489.6739743882231 0 0 1 192.009465323965,26.788947965288685"/><text text-anchor="middle" pointer-events="none" font-size="8px" fill="#000000" x="168.39974230845286" y="30.010785270931365" transform="rotate(180 168.39974230845286 27.010785270931365)" font-family="sans-serif">ADMIN_TO</text></g><g class="relationship" transform="translate(-187.17439431030064 39.54113453911863) rotate(506.410391577203)"><path class="outline" fill="#A5ABB6" stroke="none" d="M 38.50762352901147,10.835724717245364 L 38.766442574113995,9.869798890956295 A 450.04435960863196 450.04435960863196 0 0 0 134.78083989329133,24.73911251922675 L 134.73536514474364,25.73807800774199 A 451.04435960863196 451.04435960863196 0 0 1 38.50762352901147,10.835724717245364 Z M 181.95643139086582,25.413139708248025 L 181.89721340744563,24.4148946329085 A 450.04435960863196 450.04435960863196 0 0 0 277.69789018686885,8.225660279636555 L 276.88162801010327,5.3388426444573085 L 284.5698416984147,6.8021848063800405 L 278.78623975588965,12.074750459875549 L 277.9699775791241,9.187932824696302 A 451.04435960863196 451.04435960863196 0 0 1 181.95643139086582,25.413139708248025"/><text text-anchor="middle" pointer-events="none" font-size="8px" fill="#000000" x="158.34671309453236" y="28.694022067345372" transform="rotate(180 158.34671309453236 25.694022067345372)" font-family="sans-serif">ADMIN_TO</text></g><g class="relationship" transform="translate(-187.17439431030064 39.54113453911863) rotate(536.4265073494098)"><path class="outline" fill="#A5ABB6" stroke="none" d="M 38.50762352901147,10.835724717245364 L 38.766442574113995,9.869798890956295 A 398.0181404821111 398.0181404821111 0 0 0 121.23414678645469,22.90123412593033 L 121.18252358451763,23.899900759508228 A 399.0181404821111 399.0181404821111 0 0 1 38.50762352901147,10.835724717245364 Z M 168.40418550538791,23.542782659475563 L 168.33746405797189,22.545011018039133 A 398.0181404821111 398.0181404821111 0 0 0 250.59864414671034,8.267798658984454 L 249.778448918515,5.3820960083903895 L 257.4686495361291,6.834960234961028 L 251.69223778430413,12.115402193109874 L 250.8720425561088,9.22969954251581 A 399.0181404821111 399.0181404821111 0 0 1 168.40418550538791,23.542782659475563"/><text text-anchor="middle" pointer-events="none" font-size="8px" fill="#000000" x="144.79486101868278" y="26.920542458948717" transform="rotate(180 144.79486101868278 23.920542458948717)" font-family="sans-serif">ADMIN_TO</text></g><g class="relationship" transform="translate(33.82707732301185 -235.9503191026942) rotate(451.234012620056)"><path class="outline" fill="#A5ABB6" stroke="none" d="M 38.50762352901147,-10.835724717245364 L 38.766442574113995,-9.869798890956295 A 372.54092168606746 372.54092168606746 0 0 1 102.37028127019386,-21.11560249194156 L 102.28219202950643,-22.11171507878862 A 373.54092168606746 373.54092168606746 0 0 0 38.50762352901147,-10.835724717245364 Z M 163.26345256458168,-22.507183078719436 L 163.18828991773879,-21.510011791267004 A 372.54092168606746 372.54092168606746 0 0 1 226.93263257661152,-11.090070596754819 L 226.19382377159596,-8.182466505818187 L 233.84017692296626,-9.85078406687455 L 227.91771098329897,-14.966876051336996 L 227.1789021782834,-12.059271960400364 A 373.54092168606746 373.54092168606746 0 0 0 163.26345256458168,-22.507183078719436"/><text text-anchor="middle" pointer-events="none" font-size="8px" fill="#000000" x="132.7679809958911" y="-20.0559788788633" transform="rotate(180 132.7679809958911 -23.0559788788633)" font-family="sans-serif">ATTACK_PATH</text></g><g class="relationship" transform="translate(33.82707732301185 -235.9503191026942) rotate(451.234012620056)"><path class="outline" fill="#A5ABB6" stroke="none" d="M 38.50762352901147,10.835724717245364 L 38.766442574113995,9.869798890956295 A 372.54092168606746 372.54092168606746 0 0 0 90.36678796124075,19.857831264152594 L 90.24647811709684,20.85056765484353 A 373.54092168606746 373.54092168606746 0 0 1 38.50762352901147,10.835724717245364 Z M 175.31451074845364,21.40224015927498 L 175.20708642026807,20.40802689557654 A 372.54092168606746 372.54092168606746 0 0 0 226.93263257661152,11.090070596754819 L 226.19382377159596,8.182466505818187 L 233.84017692296626,9.85078406687455 L 227.91771098329897,14.966876051336996 L 227.1789021782834,12.059271960400364 A 373.54092168606746 373.54092168606746 0 0 1 175.31451074845364,21.40224015927498"/><text text-anchor="middle" pointer-events="none" font-size="8px" fill="#000000" x="132.76798099589118" y="26.0559788788633" transform="rotate(180 132.76798099589118 23.0559788788633)" font-family="sans-serif">GET_CHANGES_ALL</text></g><g class="relationship" transform="translate(121.2887654539218 -228.05405727053156) rotate(469.42600251028824)"><path class="outline" fill="#A5ABB6" stroke="none" d="M 40 0.5 L 103.58356901743545 0.5 L 103.58356901743545 -0.5 L 40 -0.5 Z M 170.04060026743545 0.5 L 233.6241692848709 0.5 L 233.6241692848709 3.5 L 240.6241692848709 0 L 233.6241692848709 -3.5 L 233.6241692848709 -0.5 L 170.04060026743545 -0.5 Z"/><text text-anchor="middle" pointer-events="none" font-size="8px" fill="#000000" x="136.81208464243545" y="3" transform="rotate(180 136.81208464243545 0)" font-family="sans-serif">GET_CHANGES</text></g><g class="relationship" transform="translate(220.99405742743133 -163.62795354934573) rotate(493.9533336992773)"><path class="outline" fill="#A5ABB6" stroke="none" d="M 38.50762352901147,-10.835724717245364 L 38.766442574113995,-9.869798890956295 A 383.28130957084284 383.28130957084284 0 0 1 105.12515320516312,-21.520161912229867 L 105.03946733659183,-22.516484115097626 A 384.28130957084284 384.28130957084284 0 0 0 38.50762352901147,-10.835724717245364 Z M 166.02223997957182,-22.90430552841184 L 165.94923279926422,-21.906974113272668 A 383.28130957084284 383.28130957084284 0 0 1 232.4507516205802,-11.101538925325386 L 231.71121276904978,-8.194120433419362 L 239.35798457694932,-9.86051802040544 L 233.43680342262076,-14.978096914533415 L 232.69726457109033,-12.070678422627392 A 384.28130957084284 384.28130957084284 0 0 0 166.02223997957182,-22.90430552841184"/><text text-anchor="middle" pointer-events="none" font-size="8px" fill="#000000" x="135.52632798231244" y="-20.422032310109103" transform="rotate(180 135.52632798231244 -23.422032310109103)" font-family="sans-serif">ATTACK_PATH</text></g><g class="relationship" transform="translate(220.99405742743133 -163.62795354934573) rotate(493.9533336992773)"><path class="outline" fill="#A5ABB6" stroke="none" d="M 38.50762352901147,10.835724717245364 L 38.766442574113995,9.869798890956295 A 383.28130957084284 383.28130957084284 0 0 0 102.39552976395481,21.275574361260567 L 102.30272217206165,22.271258423042752 A 384.28130957084284 384.28130957084284 0 0 1 38.50762352901147,10.835724717245364 Z M 168.7618826969569,22.6939070571633 L 168.6817462531406,21.69712315361528 A 383.28130957084284 383.28130957084284 0 0 0 232.4507516205802,11.101538925325386 L 231.71121276904978,8.194120433419362 L 239.35798457694932,9.86051802040544 L 233.43680342262076,14.978096914533415 L 232.69726457109033,12.070678422627392 A 384.28130957084284 384.28130957084284 0 0 1 168.7618826969569,22.6939070571633"/><text text-anchor="middle" pointer-events="none" font-size="8px" fill="#000000" x="135.52632798231258" y="26.422032310109103" transform="rotate(180 135.52632798231258 23.422032310109103)" font-family="sans-serif">GET_CHANGES</text></g><g class="relationship" transform="translate(230.65849847879056 176.01895375507473) rotate(214.52127379212635)"><path class="outline" fill="#A5ABB6" stroke="none" d="M 9.869798890956295,-38.766442574113995 L 10.835724717245364,-38.50762352901147 A 114.85158747373973 114.85158747373973 0 0 1 77.43771487066597,-114.73086713064757 L 77.05168516613185,-115.65335348134187 A 115.85158747373973 115.85158747373973 0 0 0 9.869798890956295,-38.766442574113995 Z M 160.602423065094,-117.93280226166286 L 160.2672650870001,-116.99064031713314 A 114.85158747373973 114.85158747373973 0 0 1 230.9261664367003,-44.51217718770434 L 228.07503491324889,-43.578877109497114 L 233.57905520642575,-38.01508697935224 L 234.72767513463555,-45.75657729198063 L 231.87654361118413,-44.82327721377341 A 115.85158747373973 115.85158747373973 0 0 0 160.602423065094,-117.93280226166286"/><text text-anchor="middle" pointer-events="none" font-size="8px" fill="#000000" x="118.62796356029553" y="-121.09052756595901" transform="rotate(180 118.62796356029553 -124.09052756595901)" font-family="sans-serif">GET_CHANGES_ALL</text></g><g class="relationship" transform="translate(230.65849847879056 176.01895375507473) rotate(214.52127379212635)"><path class="outline" fill="#A5ABB6" stroke="none" d="M 27.93071785686863,-28.63782463805517 L 28.637824638055175,-27.930717856868625 A 131.71421500736852 131.71421500736852 0 0 1 86.50913432895962,-61.70031786598378 L 86.24139781382726,-62.66381003433014 A 132.71421500736852 132.71421500736852 0 0 0 27.93071785686863,-28.63782463805517 Z M 152.23687856312614,-63.96538916529519 L 152.00733993146557,-62.99208961398767 A 131.71421500736852 131.71421500736852 0 0 1 211.16515389770655,-31.530566814672678 L 209.12912503071726,-29.327254205716258 L 216.64555479643641,-27.147051559857097 L 213.87985905369226,-34.468316959947906 L 211.84383018670297,-32.26500435099148 A 132.71421500736852 132.71421500736852 0 0 0 152.23687856312614,-63.96538916529519"/><text text-anchor="middle" pointer-events="none" font-size="8px" fill="#000000" x="119.16678490555543" y="-63.98321226928445" transform="rotate(180 119.16678490555543 -66.98321226928445)" font-family="sans-serif">GET_CHANGES</text></g><g class="relationship" transform="translate(230.65849847879056 176.01895375507473) rotate(214.52127379212635)"><path class="outline" fill="#A5ABB6" stroke="none" d="M 38.50762352901147,-10.835724717245364 L 38.766442574113995,-9.869798890956295 A 320.7159528829659 320.7159528829659 0 0 1 97.4179355603531,-19.871771165003395 L 97.34199327101845,-20.86888337969674 A 321.7159528829659 321.7159528829659 0 0 0 38.50762352901147,-10.835724717245364 Z M 141.60518467024013,-21.18612231946389 L 141.5435422641235,-20.188024020813828 A 320.7159528829659 320.7159528829659 0 0 1 200.33237301770325,-11.027758876582759 L 199.59753086473486,-8.119149757051431 L 207.2416013221044,-9.797895372911753 L 201.31216255499444,-14.905904369291193 L 200.57732040202606,-11.997295249759865 A 321.7159528829659 321.7159528829659 0 0 0 141.60518467024013,-21.18612231946389"/><text text-anchor="middle" pointer-events="none" font-size="8px" fill="#000000" x="119.47170991741758" y="-18.28968028599428" transform="rotate(180 119.47170991741758 -21.28968028599428)" font-family="sans-serif">DC_SYNC</text></g><g class="relationship" transform="translate(230.65849847879056 176.01895375507473) rotate(214.52127379212635)"><path class="outline" fill="#A5ABB6" stroke="none" d="M 38.50762352901147,10.835724717245364 L 38.766442574113995,9.869798890956295 A 320.7159528829659 320.7159528829659 0 0 0 90.78723696411654,19.29750446587832 L 90.69061999821334,20.292826103289883 A 321.7159528829659 321.7159528829659 0 0 1 38.50762352901147,10.835724717245364 Z M 148.26413155254323,20.705461505004052 L 148.18179092856508,19.708857259757792 A 320.7159528829659 320.7159528829659 0 0 0 200.33237301770325,11.027758876582759 L 199.59753086473486,8.119149757051431 L 207.2416013221044,9.797895372911753 L 201.31216255499444,14.905904369291193 L 200.57732040202606,11.997295249759865 A 321.7159528829659 321.7159528829659 0 0 1 148.26413155254323,20.705461505004052"/><text text-anchor="middle" pointer-events="none" font-size="8px" fill="#000000" x="119.47170991741774" y="24.28968028599428" transform="rotate(180 119.47170991741774 21.28968028599428)" font-family="sans-serif">WRITE_DACL</text></g><g class="relationship" transform="translate(230.65849847879056 176.01895375507473) rotate(214.52127379212635)"><path class="outline" fill="#DA7194" stroke="none" d="M 27.93071785686863,28.63782463805517 L 28.637824638055175,27.930717856868625 A 131.71421500736852 131.71421500736852 0 0 0 86.30296352924435,61.64284635754572 L 86.03366172520444,62.605902190995096 A 132.71421500736852 132.71421500736852 0 0 1 27.93071785686863,28.63782463805517 Z M 152.4467363670111,63.915717211592806 L 152.21561645934426,62.942791937853826 A 131.71421500736852 131.71421500736852 0 0 0 211.16515389770655,31.530566814672678 L 209.12912503071726,29.327254205716258 L 216.64555479643641,27.147051559857097 L 213.87985905369226,34.468316959947906 L 211.84383018670297,32.26500435099148 A 132.71421500736852 132.71421500736852 0 0 1 152.4467363670111,63.915717211592806"/><text text-anchor="middle" pointer-events="none" font-size="8px" fill="#000000" x="119.16678490555546" y="69.98321226928445" transform="rotate(180 119.16678490555546 66.98321226928445)" font-family="sans-serif">WRITE_OWNER</text></g><g class="relationship" transform="translate(230.65849847879056 176.01895375507473) rotate(214.52127379212635)"><path class="outline" fill="#A5ABB6" stroke="none" d="M 9.869798890956295,38.766442574113995 L 10.835724717245364,38.50762352901147 A 114.85158747373973 114.85158747373973 0 0 0 103.3448056369385,122.14523388869318 L 103.18434609069406,123.13227630623106 A 115.85158747373973 115.85158747373973 0 0 1 9.869798890956295,38.766442574113995 Z M 134.1008557091263,123.97574701533168 L 133.99445219123328,122.98142398362617 A 114.85158747373973 114.85158747373973 0 0 0 230.9261664367003,44.51217718770434 L 228.07503491324889,43.578877109497114 L 233.57905520642575,38.01508697935224 L 234.72767513463555,45.75657729198063 L 231.87654361118413,44.82327721377341 A 115.85158747373973 115.85158747373973 0 0 1 134.1008557091263,123.97574701533168"/><text text-anchor="middle" pointer-events="none" font-size="8px" fill="#000000" x="118.62796356029556" y="127.09052756595904" transform="rotate(180 118.62796356029556 124.09052756595904)" font-family="sans-serif">OWNS</text></g><g class="relationship" transform="translate(-64.88551176263977 253.07027357245167) rotate(293.2134517740213)"><path class="outline" fill="#A5ABB6" stroke="none" d="M 40 0.5 L 83.7058998336773 0.5 L 83.7058998336773 -0.5 L 40 -0.5 Z M 144.83871233367728 0.5 L 188.5446121673546 0.5 L 188.5446121673546 3.5 L 195.5446121673546 0 L 188.5446121673546 -3.5 L 188.5446121673546 -0.5 L 144.83871233367728 -0.5 Z"/><text text-anchor="middle" pointer-events="none" font-size="8px" fill="#000000" x="114.2723060836773" y="3" font-family="sans-serif">GENERIC_ALL</text></g><g class="relationship" transform="translate(27.956208757002788 36.59468776189874) rotate(337.71623512630117)"><path class="outline" fill="#A5ABB6" stroke="none" d="M 40 0.5 L 84.66786546798643 0.5 L 84.66786546798643 -0.5 L 40 -0.5 Z M 131.41005296798642 0.5 L 176.07791843597286 0.5 L 176.07791843597286 3.5 L 183.07791843597286 0 L 176.07791843597286 -3.5 L 176.07791843597286 -0.5 L 131.41005296798642 -0.5 Z"/><text text-anchor="middle" pointer-events="none" font-size="8px" fill="#000000" x="108.03895921798643" y="3" font-family="sans-serif">CONTAINS</text></g><g class="relationship" transform="translate(-95.68970283925842 -196.46287866577057) rotate(422.0523472808659)"><path class="outline" fill="#A5ABB6" stroke="none" d="M 24.018736134675446,6.953439040707552 L 24.277555179777966,5.987513214418485 A 404.27260362921436 404.27260362921436 0 0 0 90.4488147771674,17.92897726528247 L 90.35367553377137,18.924441239701423 A 405.27260362921436 405.27260362921436 0 0 1 24.018736134675446,6.953439040707552 Z M 151.32788623501403,20.142319650675688 L 151.272573140514,19.143850591777607 A 404.27260362921436 404.27260362921436 0 0 0 217.8678954601131,9.854221668518802 L 217.2077699142611,6.927750369545647 L 224.8063494153591,8.801673944693043 L 218.7480628545824,13.756183400483009 L 218.0879373087304,10.829712101509854 A 405.27260362921436 405.27260362921436 0 0 1 151.32788623501403,20.142319650675688"/><text text-anchor="middle" pointer-events="none" font-size="8px" fill="#000000" x="120.82782456000095" y="23.18205082661376" font-family="sans-serif">ATTACK_PATH</text></g><g class="relationship" transform="translate(-95.68970283925842 -196.46287866577057) rotate(422.0523472808659)"><path class="outline" fill="#A5ABB6" stroke="none" d="M 24.018736134675446,-6.953439040707552 L 24.277555179777966,-5.987513214418485 A 404.27260362921436 404.27260362921436 0 0 1 100.98761614124753,-18.79727135398855 L 100.91854544978766,-19.794883121953035 A 405.27260362921436 405.27260362921436 0 0 0 24.018736134675446,-6.953439040707552 Z M 140.73668464804274,-20.590197264391577 L 140.70750507821754,-19.590623078698115 A 404.27260362921436 404.27260362921436 0 0 1 217.8678954601131,-9.854221668518802 L 217.2077699142611,-6.927750369545647 L 224.8063494153591,-8.801673944693043 L 218.7480628545824,-13.756183400483009 L 218.0879373087304,-10.829712101509854 A 405.27260362921436 405.27260362921436 0 0 0 140.73668464804274,-20.590197264391577"/><text text-anchor="middle" pointer-events="none" font-size="8px" fill="#000000" x="120.82782456000079" y="-17.18205082661376" font-family="sans-serif">GP_LINK</text></g><g class="relationship" transform="translate(393.2927586678859 -128.96376593762574) rotate(513.0012821671205)"><path class="outline" fill="#A5ABB6" stroke="none" d="M 24.018736134675446,6.953439040707552 L 24.277555179777966,5.987513214418485 A 233.60030372502263 233.60030372502263 0 0 0 47.812116613195506,11.01033480871223 L 47.654044703512476,11.997762411814932 A 234.60030372502263 234.60030372502263 0 0 1 24.018736134675446,6.953439040707552 Z M 108.55570976153754,13.735052570213242 L 108.4541841170358,12.740219647804395 A 233.60030372502263 233.60030372502263 0 0 0 132.2368051476208,9.067175195720612 L 131.62680111511767,6.129847314749556 L 139.19223754197046,8.133387100041805 L 133.050143857625,12.983612370348686 L 132.44013982512186,10.04628448937763 A 234.60030372502263 234.60030372502263 0 0 1 108.55570976153754,13.735052570213242"/><text text-anchor="middle" pointer-events="none" font-size="8px" fill="#000000" x="78.06249728071285" y="17.352060085062647" transform="rotate(180 78.06249728071285 14.352060085062647)" font-family="sans-serif">ATTACK_PATH</text></g><g class="relationship" transform="translate(393.2927586678859 -128.96376593762574) rotate(513.0012821671205)"><path class="outline" fill="#A5ABB6" stroke="none" d="M 24.018736134675446,-6.953439040707552 L 24.277555179777966,-5.987513214418485 A 233.60030372502263 233.60030372502263 0 0 1 58.278766636277766,-12.44395978050008 L 58.16550053316338,-13.437524468824535 A 234.60030372502263 234.60030372502263 0 0 0 24.018736134675446,-6.953439040707552 Z M 97.97927227994316,-14.573258175916067 L 97.92282943079017,-13.574852344212587 A 233.60030372502263 233.60030372502263 0 0 1 132.2368051476208,-9.067175195720612 L 131.62680111511767,-6.129847314749556 L 139.19223754197046,-8.133387100041805 L 133.050143857625,-12.983612370348686 L 132.44013982512186,-10.04628448937763 A 234.60030372502263 234.60030372502263 0 0 0 97.97927227994316,-14.573258175916067"/><text text-anchor="middle" pointer-events="none" font-size="8px" fill="#000000" x="78.06249728071286" y="-11.352060085062647" transform="rotate(180 78.06249728071286 -14.352060085062647)" font-family="sans-serif">GP_LINK</text></g><g class="relationship" transform="translate(-490.52134711428016 -87.14206518590589) rotate(495.94987364272157)"><path class="outline" fill="#A5ABB6" stroke="none" d="M 25 0.5 L 55.672327973427116 0.5 L 55.672327973427116 -0.5 L 25 -0.5 Z M 112.34420297342712 0.5 L 143.01653094685423 0.5 L 143.01653094685423 3.5 L 150.01653094685423 0 L 143.01653094685423 -3.5 L 143.01653094685423 -0.5 L 112.34420297342712 -0.5 Z"/><text text-anchor="middle" pointer-events="none" font-size="8px" fill="#000000" x="84.00826547342712" y="3" transform="rotate(180 84.00826547342712 0)" font-family="sans-serif">MEMBER_OF</text></g><g class="relationship" transform="translate(-468.14320589489034 57.087695535767544) rotate(184.3581397102687)"><path class="outline" fill="#A5ABB6" stroke="none" d="M 25 0.5 L 40.369057800856055 0.5 L 40.369057800856055 -0.5 L 25 -0.5 Z M 97.04093280085605 0.5 L 112.40999060171211 0.5 L 112.40999060171211 3.5 L 119.40999060171211 0 L 112.40999060171211 -3.5 L 112.40999060171211 -0.5 L 97.04093280085605 -0.5 Z"/><text text-anchor="middle" pointer-events="none" font-size="8px" fill="#000000" x="68.70499530085605" y="3" transform="rotate(180 68.70499530085605 0)" font-family="sans-serif">MEMBER_OF</text></g><g class="relationship" transform="translate(-444.26706271282694 210.2858920888268) rotate(222.12011089514226)"><path class="outline" fill="#A5ABB6" stroke="none" d="M 25 0.5 L 83.90474569808013 0.5 L 83.90474569808013 -0.5 L 25 -0.5 Z M 140.57662069808015 0.5 L 199.48136639616027 0.5 L 199.48136639616027 3.5 L 206.48136639616027 0 L 199.48136639616027 -3.5 L 199.48136639616027 -0.5 L 140.57662069808015 -0.5 Z"/><text text-anchor="middle" pointer-events="none" font-size="8px" fill="#000000" x="112.24068319808013" y="3" transform="rotate(180 112.24068319808013 0)" font-family="sans-serif">MEMBER_OF</text></g><g class="relationship" transform="translate(-490.52134711428016 -87.14206518590589) rotate(316.10652298015225)"><path class="outline" fill="#A5ABB6" stroke="none" d="M 25 0.5 L 50.76237703962589 0.5 L 50.76237703962589 -0.5 L 25 -0.5 Z M 113.22722078962589 0.5 L 138.98959782925178 0.5 L 138.98959782925178 3.5 L 145.98959782925178 0 L 138.98959782925178 -3.5 L 138.98959782925178 -0.5 L 113.22722078962589 -0.5 Z"/><text text-anchor="middle" pointer-events="none" font-size="8px" fill="#000000" x="81.99479891462589" y="3" font-family="sans-serif">HAS_SESSION</text></g><g class="relationship" transform="translate(-187.17439431030064 39.54113453911863) rotate(235.09736749529537)"><path class="outline" fill="#A5ABB6" stroke="none" d="M 40 0.5 L 122.36360657372956 0.5 L 122.36360657372956 -0.5 L 40 -0.5 Z M 183.49641907372956 0.5 L 265.8600256474591 0.5 L 265.8600256474591 3.5 L 272.8600256474591 0 L 265.8600256474591 -3.5 L 265.8600256474591 -0.5 L 183.49641907372956 -0.5 Z"/><text text-anchor="middle" pointer-events="none" font-size="8px" fill="#000000" x="152.93001282372956" y="3" transform="rotate(180 152.93001282372956 0)" font-family="sans-serif">GENERIC_ALL</text></g><g class="relationship" transform="translate(-444.26706271282694 210.2858920888268) rotate(452.0555168675183)"><path class="outline" fill="#A5ABB6" stroke="none" d="M 24.018736134675446,-6.953439040707552 L 24.277555179777966,-5.987513214418485 A 246.88975978914155 246.88975978914155 0 0 1 53.13483747148504,-11.900533447812052 L 52.99290169572651,-12.89040931657533 A 247.88975978914155 247.88975978914155 0 0 0 24.018736134675446,-6.953439040707552 Z M 113.91916487984598,-14.059888649882367 L 113.81532098630335,-13.065295041530732 A 246.88975978914155 246.88975978914155 0 0 1 142.87826348686625,-8.264053248747553 L 142.2135829855819,-5.338613139770375 L 149.8150704913604,-7.2007054305803 L 143.76450415524536,-12.164640060717124 L 143.099823653961,-9.239199951739947 A 247.88975978914155 247.88975978914155 0 0 0 113.91916487984598,-14.059888649882367"/><text text-anchor="middle" pointer-events="none" font-size="8px" fill="#000000" x="83.42955635872411" y="-11.854515255384115" transform="rotate(180 83.42955635872411 -14.854515255384115)" font-family="sans-serif">ATTACK_PATH</text></g><g class="relationship" transform="translate(-444.26706271282694 210.2858920888268) rotate(452.0555168675183)"><path class="outline" fill="#A5ABB6" stroke="none" d="M 24.018736134675446,6.953439040707552 L 24.277555179777966,5.987513214418485 A 246.88975978914155 246.88975978914155 0 0 0 52.39602181870451,11.793456342436343 L 52.251093550857966,12.782898507082166 A 247.88975978914155 247.88975978914155 0 0 1 24.018736134675446,6.953439040707552 Z M 114.66455240963404,13.980924554321746 L 114.55770158458111,12.986649491180003 A 246.88975978914155 246.88975978914155 0 0 0 142.87826348686625,8.264053248747553 L 142.2135829855819,5.338613139770375 L 149.8150704913604,7.2007054305803 L 143.76450415524536,12.164640060717124 L 143.099823653961,9.239199951739947 A 247.88975978914155 247.88975978914155 0 0 1 114.66455240963404,13.980924554321746"/><text text-anchor="middle" pointer-events="none" font-size="8px" fill="#000000" x="83.42955635872414" y="17.854515255384115" transform="rotate(180 83.42955635872414 14.854515255384115)" font-family="sans-serif">HAS_SESSION</text></g><g class="relationship" transform="translate(-632.3012760992773 182.77784089172286) rotate(368.3229204510627)"><path class="outline" fill="#A5ABB6" stroke="none" d="M 40 0.5 L 75.42213504831832 0.5 L 75.42213504831832 -0.5 L 40 -0.5 Z M 122.61354129831832 0.5 L 158.03567634663665 0.5 L 158.03567634663665 3.5 L 165.03567634663665 0 L 158.03567634663665 -3.5 L 158.03567634663665 -0.5 L 122.61354129831832 -0.5 Z"/><text text-anchor="middle" pointer-events="none" font-size="8px" fill="#000000" x="99.01783817331832" y="3" font-family="sans-serif">ADMIN_TO</text></g><g class="relationship" transform="translate(-211.7894554784312 391.37322225341404) rotate(217.916638808335)"><path class="outline" fill="#A5ABB6" stroke="none" d="M 38.50762352901147,10.835724717245364 L 38.766442574113995,9.869798890956295 A 423.27915319846466 423.27915319846466 0 0 0 120.944007402795,23.406529199388274 L 120.87933343714586,24.40443564699109 A 424.27915319846466 424.27915319846466 0 0 1 38.50762352901147,10.835724717245364 Z M 181.8658006881002,23.964383643955955 L 181.78673328255255,22.967514371995037 A 423.27915319846466 423.27915319846466 0 0 0 263.7604012754442,8.246339676801437 L 262.942208943601,5.360068499640002 L 270.6313994107948,6.818269432027359 L 264.8513243845686,12.094701246350018 L 264.03313205272536,9.208430069188584 A 424.27915319846466 424.27915319846466 0 0 1 181.8658006881002,23.964383643955955"/><text text-anchor="middle" pointer-events="none" font-size="8px" fill="#000000" x="151.3768765257185" y="27.78165480769934" transform="rotate(180 151.3768765257185 24.78165480769934)" font-family="sans-serif">ATTACK_PATH</text></g><g class="relationship" transform="translate(-211.7894554784312 391.37322225341404) rotate(217.916638808335)"><path class="outline" fill="#A5ABB6" stroke="none" d="M 38.50762352901147,-10.835724717245364 L 38.766442574113995,-9.869798890956295 A 423.27915319846466 423.27915319846466 0 0 1 127.81346112255618,-23.795697214606093 L 127.76501629001662,-24.79452307440357 A 424.27915319846466 424.27915319846466 0 0 0 38.50762352901147,-10.835724717245364 Z M 174.98646390775522,-24.45379350689325 L 174.92361067801255,-23.45577072583518 A 423.27915319846466 423.27915319846466 0 0 1 263.7604012754442,-8.246339676801437 L 262.942208943601,-5.360068499640002 L 270.6313994107948,-6.818269432027359 L 264.8513243845686,-12.094701246350018 L 264.03313205272536,-9.208430069188584 A 424.27915319846466 424.27915319846466 0 0 0 174.98646390775522,-24.45379350689325"/><text text-anchor="middle" pointer-events="none" font-size="8px" fill="#000000" x="151.37687652571836" y="-21.78165480769934" transform="rotate(180 151.37687652571836 -24.78165480769934)" font-family="sans-serif">ADMIN_TO</text></g><g class="relationship" transform="translate(-187.17439431030064 39.54113453911863) rotate(522.1624223837084)"><path class="outline" fill="#A5ABB6" stroke="none" d="M 40 0.5 L 199.73623217497575 0.5 L 199.73623217497575 -0.5 L 40 -0.5 Z M 260.8690446749757 0.5 L 420.6052768499515 0.5 L 420.6052768499515 3.5 L 427.6052768499515 0 L 420.6052768499515 -3.5 L 420.6052768499515 -0.5 L 260.8690446749757 -0.5 Z"/><text text-anchor="middle" pointer-events="none" font-size="8px" fill="#000000" x="230.30263842497575" y="3" transform="rotate(180 230.30263842497575 0)" font-family="sans-serif">GENERIC_ALL</text></g><g class="relationship" transform="translate(-187.17439431030064 39.54113453911863) rotate(454.0020362351405)"><path class="outline" fill="#A5ABB6" stroke="none" d="M 40 0.5 L 142.2796450112279 0.5 L 142.2796450112279 -0.5 L 40 -0.5 Z M 203.4124575112279 0.5 L 305.6921025224558 0.5 L 305.6921025224558 3.5 L 312.6921025224558 0 L 305.6921025224558 -3.5 L 305.6921025224558 -0.5 L 203.4124575112279 -0.5 Z"/><text text-anchor="middle" pointer-events="none" font-size="8px" fill="#000000" x="172.8460512612279" y="3" transform="rotate(180 172.8460512612279 0)" font-family="sans-serif">GENERIC_ALL</text></g><g class="relationship" transform="translate(-187.17439431030064 39.54113453911863) rotate(486.81794809462184)"><path class="outline" fill="#A5ABB6" stroke="none" d="M 40 0.5 L 189.61868904680887 0.5 L 189.61868904680887 -0.5 L 40 -0.5 Z M 250.75150154680887 0.5 L 400.37019059361774 0.5 L 400.37019059361774 3.5 L 407.37019059361774 0 L 400.37019059361774 -3.5 L 400.37019059361774 -0.5 L 250.75150154680887 -0.5 Z"/><text text-anchor="middle" pointer-events="none" font-size="8px" fill="#000000" x="220.18509529680887" y="3" transform="rotate(180 220.18509529680887 0)" font-family="sans-serif">GENERIC_ALL</text></g><g class="relationship" transform="translate(-450.7773392529293 391.67643806666763) rotate(359.92730603416055)"><path class="outline" fill="#A5ABB6" stroke="none" d="M 32.5 0.5 L 83.90810056345573 0.5 L 83.90810056345573 -0.5 L 32.5 -0.5 Z M 140.57997556345572 0.5 L 191.98807612691147 0.5 L 191.98807612691147 3.5 L 198.98807612691147 0 L 191.98807612691147 -3.5 L 191.98807612691147 -0.5 L 140.57997556345572 -0.5 Z"/><text text-anchor="middle" pointer-events="none" font-size="8px" fill="#000000" x="112.24403806345573" y="3" font-family="sans-serif">MEMBER_OF</text></g></g><g class="layer nodes"><g class="node" transform="translate(-187.17439431030064,39.54113453911863)"><circle class="outline" cx="0" cy="0" r="40" fill="#8DCC93" stroke="#5db665" stroke-width="2px"/><text text-anchor="middle" pointer-events="none" font-family="sans-serif" dy="2.5" font-size="40" fill="#2A2C34"/><text text-anchor="middle" pointer-events="none" font-family="sans-serif" dy="2.5" font-size="40" fill="#2A2C34"/><text text-anchor="middle" pointer-events="none" x="0" y="0" font-size="10px" fill="#2A2C34" font-family="sans-serif"> DOMAIN</text><text text-anchor="middle" pointer-events="none" x="0" y="10" font-size="10px" fill="#2A2C34" font-family="sans-serif"> ADMINS@Test…</text></g><g class="node" transform="translate(-627.0922684122568,44.974040906041466)"><circle class="outline" cx="0" cy="0" r="40" fill="#8DCC93" stroke="#5db665" stroke-width="2px"/><text text-anchor="middle" pointer-events="none" font-family="sans-serif" dy="2.5" font-size="40" fill="#2A2C34"/><text text-anchor="middle" pointer-events="none" font-family="sans-serif" dy="2.5" font-size="40" fill="#2A2C34"/><text text-anchor="middle" pointer-events="none" x="0" y="0" font-size="10px" fill="#2A2C34" font-family="sans-serif"> DOMAIN</text><text text-anchor="middle" pointer-events="none" x="0" y="10" font-size="10px" fill="#2A2C34" font-family="sans-serif"> COMPUTERS…</text></g><g class="node" transform="translate(33.82707732301185,-235.9503191026942)"><circle class="outline" cx="0" cy="0" r="40" fill="#8DCC93" stroke="#5db665" stroke-width="2px"/><text text-anchor="middle" pointer-events="none" font-family="sans-serif" dy="2.5" font-size="40" fill="#2A2C34"/><text text-anchor="middle" pointer-events="none" font-family="sans-serif" dy="2.5" font-size="40" fill="#2A2C34"/><text text-anchor="middle" pointer-events="none" x="0" y="0" font-size="10px" fill="#2A2C34" font-family="sans-serif"> DOMAIN</text><text text-anchor="middle" pointer-events="none" x="0" y="10" font-size="10px" fill="#2A2C34" font-family="sans-serif"> CONTROLLE…</text></g><g class="node" transform="translate(121.2887654539218,-228.05405727053156)"><circle class="outline" cx="0" cy="0" r="40" fill="#8DCC93" stroke="#5db665" stroke-width="2px"/><text text-anchor="middle" pointer-events="none" font-family="sans-serif" dy="2.5" font-size="40" fill="#2A2C34"/><text text-anchor="middle" pointer-events="none" font-family="sans-serif" dy="2.5" font-size="40" fill="#2A2C34"/><text text-anchor="middle" pointer-events="none" font-family="sans-serif" dy="2.5" font-size="40" fill="#2A2C34"/><text text-anchor="middle" pointer-events="none" x="0" y="-5" font-size="10px" fill="#2A2C34" font-family="sans-serif"> ENTERPRISE</text><text text-anchor="middle" pointer-events="none" x="0" y="5" font-size="10px" fill="#2A2C34" font-family="sans-serif"> DOMAIN</text><text text-anchor="middle" pointer-events="none" x="0" y="15" font-size="10px" fill="#2A2C34" font-family="sans-serif"> CONTROLLE…</text></g><g class="node" transform="translate(220.99405742743133,-163.62795354934573)"><circle class="outline" cx="0" cy="0" r="40" fill="#8DCC93" stroke="#5db665" stroke-width="2px"/><text text-anchor="middle" pointer-events="none" font-family="sans-serif" dy="2.5" font-size="40" fill="#2A2C34"/><text text-anchor="middle" pointer-events="none" font-family="sans-serif" dy="2.5" font-size="40" fill="#2A2C34"/><text text-anchor="middle" pointer-events="none" font-family="sans-serif" dy="2.5" font-size="40" fill="#2A2C34"/><text text-anchor="middle" pointer-events="none" font-family="sans-serif" dy="2.5" font-size="40" fill="#2A2C34"/><text text-anchor="middle" pointer-events="none" x="0" y="-10" font-size="10px" fill="#2A2C34" font-family="sans-serif"> ENTERPRISE</text><text text-anchor="middle" pointer-events="none" x="0" y="0" font-size="10px" fill="#2A2C34" font-family="sans-serif"> READ-ONLY</text><text text-anchor="middle" pointer-events="none" x="0" y="10" font-size="10px" fill="#2A2C34" font-family="sans-serif"> DOMAIN</text><text text-anchor="middle" pointer-events="none" x="0" y="20" font-size="10px" fill="#2A2C34" font-family="sans-serif"> CONTROLL…</text></g><g class="node" transform="translate(230.65849847879056,176.01895375507473)"><circle class="outline" cx="0" cy="0" r="40" fill="#8DCC93" stroke="#5db665" stroke-width="2px"/><text text-anchor="middle" pointer-events="none" font-family="sans-serif" dy="2.5" font-size="40" fill="#2A2C34"/><text text-anchor="middle" pointer-events="none" x="0" y="5" font-size="10px" fill="#2A2C34" font-family="sans-serif"> ADMINISTRAT…</text></g><g class="node" transform="translate(-64.88551176263977,253.07027357245167)"><circle class="outline" cx="0" cy="0" r="40" fill="#8DCC93" stroke="#5db665" stroke-width="2px"/><text text-anchor="middle" pointer-events="none" font-family="sans-serif" dy="2.5" font-size="40" fill="#2A2C34"/><text text-anchor="middle" pointer-events="none" font-family="sans-serif" dy="2.5" font-size="40" fill="#2A2C34"/><text text-anchor="middle" pointer-events="none" x="0" y="0" font-size="10px" fill="#2A2C34" font-family="sans-serif"> ENTERPRISE</text><text text-anchor="middle" pointer-events="none" x="0" y="10" font-size="10px" fill="#2A2C34" font-family="sans-serif"> ADMINS@Test…</text></g><g class="node" transform="translate(27.956208757002788,36.59468776189874)"><circle class="outline" cx="0" cy="0" r="40" fill="#569480" stroke="#447666" stroke-width="2px"/><text text-anchor="middle" pointer-events="none" font-family="sans-serif" dy="2.5" font-size="40" fill="#FFFFFF"/><text text-anchor="middle" pointer-events="none" x="0" y="5" font-size="10px" fill="#FFFFFF" font-family="sans-serif"> TestCompany.L…</text></g><g class="node" transform="translate(-95.68970283925842,-196.46287866577057)"><circle class="outline" cx="0" cy="0" r="25" fill="#FFC454" stroke="#d7a013" stroke-width="2px"/><text text-anchor="middle" pointer-events="none" font-family="sans-serif" dy="1.5625" font-size="25" fill="#2A2C34"/><text text-anchor="middle" pointer-events="none" x="0" y="5" font-size="10px" fill="#2A2C34" font-family="sans-serif"> DEFAULT</text></g><g class="node" transform="translate(234.37404420063768,-47.99511602372915)"><circle class="outline" cx="0" cy="0" r="40" fill="#C990C0" stroke="#b261a5" stroke-width="2px"/><text text-anchor="middle" pointer-events="none" font-family="sans-serif" dy="2.5" font-size="40" fill="#FFFFFF"/><text text-anchor="middle" pointer-events="none" font-family="sans-serif" dy="2.5" font-size="40" fill="#FFFFFF"/><text text-anchor="middle" pointer-events="none" x="0" y="0" font-size="10px" fill="#FFFFFF" font-family="sans-serif"> DOMAIN</text><text text-anchor="middle" pointer-events="none" x="0" y="10" font-size="10px" fill="#FFFFFF" font-family="sans-serif"> CONTROLLE…</text></g><g class="node" transform="translate(393.2927586678859,-128.96376593762574)"><circle class="outline" cx="0" cy="0" r="25" fill="#FFC454" stroke="#d7a013" stroke-width="2px"/><text text-anchor="middle" pointer-events="none" font-family="sans-serif" dy="1.5625" font-size="25" fill="#2A2C34"/><text text-anchor="middle" pointer-events="none" x="0" y="5" font-size="10px" fill="#2A2C34" font-family="sans-serif"> DEFAULT</text></g><g class="node" transform="translate(-490.52134711428016,-87.14206518590589)"><circle class="outline" cx="0" cy="0" r="25" fill="#F16667" stroke="#eb2728" stroke-width="2px"/><text text-anchor="middle" pointer-events="none" font-family="sans-serif" dy="1.5625" font-size="25" fill="#FFFFFF"/><text text-anchor="middle" pointer-events="none" x="0" y="5" font-size="10px" fill="#FFFFFF" font-family="sans-serif"> COMP0…</text></g><g class="node" transform="translate(-468.14320589489034,57.087695535767544)"><circle class="outline" cx="0" cy="0" r="25" fill="#F16667" stroke="#eb2728" stroke-width="2px"/><text text-anchor="middle" pointer-events="none" font-family="sans-serif" dy="1.5625" font-size="25" fill="#FFFFFF"/><text text-anchor="middle" pointer-events="none" x="0" y="5" font-size="10px" fill="#FFFFFF" font-family="sans-serif"> COMP0…</text></g><g class="node" transform="translate(-444.26706271282694,210.2858920888268)"><circle class="outline" cx="0" cy="0" r="25" fill="#F16667" stroke="#eb2728" stroke-width="2px"/><text text-anchor="middle" pointer-events="none" font-family="sans-serif" dy="1.5625" font-size="25" fill="#FFFFFF"/><text text-anchor="middle" pointer-events="none" x="0" y="5" font-size="10px" fill="#FFFFFF" font-family="sans-serif"> COMP0…</text></g><g class="node" transform="translate(-361.8963794735655,-210.8924358224141)"><circle class="outline" cx="0" cy="0" r="32.5" fill="#D9C8AE" stroke="#c0a378" stroke-width="2px"/><text text-anchor="middle" pointer-events="none" font-family="sans-serif" dy="2.03125" font-size="32.5" fill="#2A2C34"/><text text-anchor="middle" pointer-events="none" x="0" y="5" font-size="10px" fill="#2A2C34" font-family="sans-serif"> HugoRiddel…</text></g><g class="node" transform="translate(-450.7773392529293,391.67643806666763)"><circle class="outline" cx="0" cy="0" r="32.5" fill="#D9C8AE" stroke="#c0a378" stroke-width="2px"/><text text-anchor="middle" pointer-events="none" font-family="sans-serif" dy="2.03125" font-size="32.5" fill="#2A2C34"/><text text-anchor="middle" pointer-events="none" x="0" y="5" font-size="10px" fill="#2A2C34" font-family="sans-serif"> PedroReif6…</text></g><g class="node" transform="translate(-632.3012760992773,182.77784089172286)"><circle class="outline" cx="0" cy="0" r="40" fill="#8DCC93" stroke="#5db665" stroke-width="2px"/><text text-anchor="middle" pointer-events="none" font-family="sans-serif" dy="2.5" font-size="40" fill="#2A2C34"/><text text-anchor="middle" pointer-events="none" x="0" y="5" font-size="10px" fill="#2A2C34" font-family="sans-serif"> IT00059@Test…</text></g><g class="node" transform="translate(-211.7894554784312,391.37322225341404)"><circle class="outline" cx="0" cy="0" r="40" fill="#8DCC93" stroke="#5db665" stroke-width="2px"/><text text-anchor="middle" pointer-events="none" font-family="sans-serif" dy="2.5" font-size="40" fill="#2A2C34"/><text text-anchor="middle" pointer-events="none" x="0" y="5" font-size="10px" fill="#2A2C34" font-family="sans-serif"> IT00147@Test…</text></g></g></svg>