<svg xmlns="http://www.w3.org/2000/svg" width="937.4725341796875" height="861.011474609375" viewBox="-661.5923461914062 -334.86492919921875 937.4725341796875 861.011474609375"><title>Neo4j Graph Visualization</title><desc>Created using Neo4j (http://www.neo4j.com/)</desc><g class="layer relationships"><g class="relationship" transform="translate(-406.6100866450795 284.55736921153164) rotate(250.65848428431673)"><path class="outline" fill="#A5ABB6" stroke="none" d="M 15.816987298107785,28.395825622994256 L 16.683012701892224,27.895825622994256 A 202.25486092934452 202.25486092934452 0 0 0 173.57750513937887,128.19698952272992 L 173.48720641883244,129.19290424853114 A 203.25486092934452 203.25486092934452 0 0 1 15.816987298107785,28.395825622994256 Z M 210.6517664813095,129.1509247903423 L 210.55921811080702,128.15521660060128 A 202.25486092934452 202.25486092934452 0 0 0 367.2267188780019,27.49986681621188 L 364.6252606322045,26.005739982448166 L 371.1465911977501,21.678818714978597 L 370.6953298723984,29.492035927896833 L 368.093871626601,27.997909094133117 A 203.25486092934452 203.25486092934452 0 0 1 210.6517664813095,129.1509247903423"/><text text-anchor="middle" pointer-events="none" font-size="8px" fill="#000000" x="192.069883164003" y="132.52312674061614" transform="rotate(180 192.069883164003 129.52312674061614)" font-family="sans-serif">AdminTo</text></g><g class="relationship" transform="translate(-406.6100866450795 284.55736921153164) rotate(347.1988311085506)"><path class="outline" fill="#A5ABB6" stroke="none" d="M 7.92865605268739,-31.52199887694598 L 8.894581878976458,-31.26317983184346 A 280.82111789375097 280.82111789375097 0 0 1 247.85834636691166,-237.54000811771817 L 247.74336710148043,-238.53337600954922 A 281.82111789375097 281.82111789375097 0 0 0 7.92865605268739,-31.52199887694598 Z M 298.66665337564206,-239.79328040951572 L 298.6009389916593,-238.7954419357447 A 280.82111789375097 280.82111789375097 0 0 1 547.473167509254,-44.5882729161661 L 544.6173329769966,-43.669464380960875 L 550.0930265134424,-38.07779376343295 L 551.2809468855972,-45.81335096310639 L 548.4251123533398,-44.894542427901165 A 281.82111789375097 281.82111789375097 0 0 0 298.66665337564206,-239.79328040951572"/><text text-anchor="middle" pointer-events="none" font-size="8px" fill="#000000" x="273.1888529044173" y="-236.81638137139305" font-family="sans-serif">GetChanges</text></g><g class="relationship" transform="translate(-134.22155747456895 -200.01053704106016) rotate(522.9343810523792)"><path class="outline" fill="#A5ABB6" stroke="none" d="M 12.066987298107785,21.900635094610966 L 12.933012701892222,21.400635094610966 A 225.75082267808008 225.75082267808008 0 0 0 168.24467888965356,130.66899184398468 L 168.0666317813424,131.6530138087914 A 226.75082267808008 226.75082267808008 0 0 1 12.066987298107785,21.900635094610966 Z M 242.37513668455176,132.72217177610938 L 242.22547382460093,131.73343468853184 A 225.75082267808008 225.75082267808008 0 0 0 400.6165255177117,26.97866303454844 L 398.0626801340507,25.40453668753766 L 404.715127891347,21.28204486384128 L 404.0216526959263,29.07749816389614 L 401.46780731226534,27.503371816885362 A 226.75082267808008 226.75082267808008 0 0 1 242.37513668455176,132.72217177610938"/><text text-anchor="middle" pointer-events="none" font-size="8px" fill="#000000" x="205.18397821259026" y="137.75263114830872" transform="rotate(180 205.18397821259026 134.75263114830872)" font-family="sans-serif">AllowedToDelegate</text></g><g class="relationship" transform="translate(-533.6569260262796 -77.39049480512779) rotate(476.79643266834796)"><path class="outline" fill="#A5ABB6" stroke="none" d="M 6.953439040707552 24.018736134675446 L 17.306200844808384 62.65576918623819 A 17.916697508022974 17.916697508022974 0 1 1 -17.306200844808384 62.65576918623819 L -8.765172356425198 30.780216918698923 L -4.901469051268926 31.815493099109005 L -6.4704761275630185 24.148145657226706 L -11.662949835292403 30.00375978339136 L -7.79924653013613 31.039035963801442 L -16.340275018519314 62.91458823134071 A 16.916697508022974 16.916697508022974 0 1 0 16.340275018519314 62.91458823134071 L 5.987513214418485 24.277555179777966 Z"/><text text-anchor="middle" pointer-events="none" font-size="8px" fill="#000000" x="0" y="94.20964923467838" transform="rotate(180 0 91.20964923467838)" font-family="sans-serif">AllowedTo…</text></g><g class="relationship" transform="translate(-406.6100866450795 284.55736921153164) rotate(347.1988311085506)"><path class="outline" fill="#A5ABB6" stroke="none" d="M 20.50757509325304,-25.217838206210054 L 21.273619536372017,-24.575050596523518 A 337.93513549881953 337.93513549881953 0 0 1 260.38777999773964,-144.7115110831634 L 260.32930968747434,-145.7098002310647 A 338.93513549881953 338.93513549881953 0 0 0 20.50757509325304,-25.217838206210054 Z M 286.80586631917026,-146.2242493825295 L 286.78621974552874,-145.2244423950843 A 337.93513549881953 337.93513549881953 0 0 1 530.3867270419792,-34.46730395103604 L 528.1652376329004,-32.45112320384329 L 535.4613970202754,-29.619858787717614 L 533.3487129207509,-37.15554494729303 L 531.1272235116721,-35.13936420010028 A 338.93513549881953 338.93513549881953 0 0 0 286.80586631917026,-146.2242493825295"/><text text-anchor="middle" pointer-events="none" font-size="8px" fill="#000000" x="273.5722750900839" y="-142.72579995935033" font-family="sans-serif">Owns</text></g><g class="relationship" transform="translate(-406.6100866450795 284.55736921153164) rotate(250.65848428431673)"><path class="outline" fill="#A5ABB6" stroke="none" d="M 27.89582562299426,16.683012701892217 L 28.39582562299426,15.816987298107778 A 326.8900693651911 326.8900693651911 0 0 0 162.46531526840263,58.28937952303295 L 162.37545158703037,59.28533359766203 A 327.8900693651911 327.8900693651911 0 0 1 27.89582562299426,16.683012701892217 Z M 221.7323836187178,59.2466055115205 L 221.64122037192902,58.25076954991084 A 326.8900693651911 326.8900693651911 0 0 0 355.65517272958937,15.603463321183684 L 354.1517837210876,13.007346704173548 L 361.9633430040299,12.528241737514643 L 357.65969140759165,19.064952143863863 L 356.1563023990899,16.46883552685373 A 327.8900693651911 327.8900693651911 0 0 1 221.7323836187178,59.2466055115205"/><text text-anchor="middle" pointer-events="none" font-size="8px" fill="#000000" x="192.05446952822777" y="63.11188266234478" transform="rotate(180 192.05446952822777 60.11188266234478)" font-family="sans-serif">ExecuteDCOM</text></g><g class="relationship" transform="translate(-134.22155747456895 -200.01053704106016) rotate(522.9343810523792)"><path class="outline" fill="#A5ABB6" stroke="none" d="M 21.40063509461097,12.933012701892217 L 21.90063509461097,12.06698729810778 A 373.0766499434757 373.0766499434757 0 0 0 175.76642169931367,60.61636299360043 L 175.67884575916307,61.6125208398812 A 374.0766499434757 374.0766499434757 0 0 1 21.40063509461097,12.933012701892217 Z M 235.0414384645167,62.10266359240188 L 234.97032341790208,61.1051954725379 A 373.0766499434757 373.0766499434757 0 0 0 389.6167986786919,15.10313185230611 L 388.15990365210854,12.480641264807904 L 395.97875922061826,12.140791888194645 L 391.55932538080305,18.599785968970384 L 390.1024303542197,15.977295381472178 A 374.0766499434757 374.0766499434757 0 0 1 235.0414384645167,62.10266359240188"/><text text-anchor="middle" pointer-events="none" font-size="8px" fill="#000000" x="205.3545320130016" y="65.53704735581249" transform="rotate(180 205.3545320130016 62.53704735581249)" font-family="sans-serif">ExecuteDCOM</text></g><g class="relationship" transform="translate(-406.6100866450795 284.55736921153164) rotate(347.1988311085506)"><path class="outline" fill="#A5ABB6" stroke="none" d="M 29.243693947820773,-14.188247400091056 L 29.666312209561475,-13.281939613054407 A 592.6876869415108 592.6876869415108 0 0 1 243.9794426714428,-67.70760856316394 L 243.9184197915259,-68.7057449306642 A 593.6876869415108 593.6876869415108 0 0 0 29.243693947820773,-14.188247400091056 Z M 303.74868288265077,-69.34283811982482 L 303.7089284272664,-68.34362864064781 A 592.6876869415108 592.6876869415108 0 0 1 519.1324186785456,-18.493942814201674 L 517.9227488723857,-15.748637920375689 L 525.7397417318329,-16.128930748799405 L 520.7453117534255,-22.154349339302986 L 519.5356419472656,-19.409044445477 A 593.6876869415108 593.6876869415108 0 0 0 303.74868288265077,-69.34283811982482"/><text text-anchor="middle" pointer-events="none" font-size="8px" fill="#000000" x="273.8308440811446" y="-66.27853350761256" font-family="sans-serif">GetChangesAll</text></g><g class="relationship" transform="translate(-406.6100866450795 284.55736921153164) rotate(250.65848428431673)"><path class="outline" fill="#A5ABB6" stroke="none" d="M 32.5 0.5 L 173.26562094789065 0.5 L 173.26562094789065 -0.5 L 32.5 -0.5 Z M 210.83202719789065 0.5 L 351.5976481457813 0.5 L 351.5976481457813 3.5 L 358.5976481457813 0 L 351.5976481457813 -3.5 L 351.5976481457813 -0.5 L 210.83202719789065 -0.5 Z"/><text text-anchor="middle" pointer-events="none" font-size="8px" fill="#000000" x="192.04882407289065" y="3" transform="rotate(180 192.04882407289065 0)" font-family="sans-serif">CanRDP</text></g><g class="relationship" transform="translate(-134.22155747456895 -200.01053704106016) rotate(522.9343810523792)"><path class="outline" fill="#A5ABB6" stroke="none" d="M 25 0.5 L 186.633220599885 0.5 L 186.633220599885 -0.5 L 25 -0.5 Z M 224.199626849885 0.5 L 385.83284744977 0.5 L 385.83284744977 3.5 L 392.83284744977 0 L 385.83284744977 -3.5 L 385.83284744977 -0.5 L 224.199626849885 -0.5 Z"/><text text-anchor="middle" pointer-events="none" font-size="8px" fill="#000000" x="205.416423724885" y="3" transform="rotate(180 205.416423724885 0)" font-family="sans-serif">CanRDP</text></g><g class="relationship" transform="translate(-406.6100866450795 284.55736921153164) rotate(347.1988311085506)"><path class="outline" fill="#A5ABB6" stroke="none" d="M 32.5 0.5 L 253.66018474142277 0.5 L 253.66018474142277 -0.5 L 32.5 -0.5 Z M 294.18362224142277 0.5 L 515.3438069828455 0.5 L 515.3438069828455 3.5 L 522.3438069828455 0 L 515.3438069828455 -3.5 L 515.3438069828455 -0.5 L 294.18362224142277 -0.5 Z"/><text text-anchor="middle" pointer-events="none" font-size="8px" fill="#000000" x="273.92190349142277" y="3" font-family="sans-serif">WriteDacl</text></g><g class="relationship" transform="translate(-406.6100866450795 284.55736921153164) rotate(347.1988311085506)"><path class="outline" fill="#A5ABB6" stroke="none" d="M 29.243693947820773,14.188247400091056 L 29.666312209561475,13.281939613054407 A 592.6876869415108 592.6876869415108 0 0 0 249.8285355134027,68.03619668734655 L 249.7773813939997,69.03488745834022 A 593.6876869415108 593.6876869415108 0 0 1 29.243693947820773,14.188247400091056 Z M 297.8840409416197,69.54714369068165 L 297.8541648146393,68.54759008179587 A 592.6876869415108 592.6876869415108 0 0 0 519.1324186785456,18.493942814201674 L 517.9227488723857,15.748637920375689 L 525.7397417318329,16.128930748799405 L 520.7453117534255,22.154349339302986 L 519.5356419472656,19.409044445477 A 593.6876869415108 593.6876869415108 0 0 1 297.8840409416197,69.54714369068165"/><text text-anchor="middle" pointer-events="none" font-size="8px" fill="#000000" x="273.8308440811448" y="72.27853350761256" font-family="sans-serif">WriteOwner</text></g><g class="relationship" transform="translate(141.7565718296437 159.95975637233573) rotate(329.3631708475084)"><path class="outline" fill="#A5ABB6" stroke="none" d="M 10.835724717245366 38.50762352901147 L 21.188486521346196 77.14465658057419 A 21.935935394489817 21.935935394489817 0 1 1 -21.188486521346196 77.14465658057419 L -12.647458032963009 45.26910431303495 L -8.783754727806736 46.30438049344503 L -10.352761804100831 38.63703305156273 L -15.545235511830214 44.49264717772739 L -11.68153220667394 45.52792335813747 L -20.22256069505713 77.40347562567672 A 20.935935394489817 20.935935394489817 0 1 0 20.22256069505713 77.40347562567672 L 9.869798890956297 38.76644257411399 Z"/><text text-anchor="middle" pointer-events="none" font-size="8px" fill="#000000" x="0" y="113.75802982729645" font-family="sans-serif">GpLink</text></g><g class="relationship" transform="translate(246.8801825195805 41.25402740784165) rotate(248.8076836994988)"><path class="outline" fill="#A5ABB6" stroke="none" d="M 25 0.5 L 64.98415437224287 0.5 L 64.98415437224287 -0.5 L 25 -0.5 Z M 96.33181062224287 0.5 L 136.31596499448574 0.5 L 136.31596499448574 3.5 L 143.31596499448574 0 L 136.31596499448574 -3.5 L 136.31596499448574 -0.5 L 96.33181062224287 -0.5 Z"/><text text-anchor="middle" pointer-events="none" font-size="8px" fill="#000000" x="80.65798249724287" y="3" transform="rotate(180 80.65798249724287 0)" font-family="sans-serif">GpLink</text></g><g class="relationship" transform="translate(246.8801825195805 41.25402740784165) rotate(491.52751058646624)"><path class="outline" fill="#A5ABB6" stroke="none" d="M 25 0.5 L 52.60735440509556 0.5 L 52.60735440509556 -0.5 L 25 -0.5 Z M 83.95501065509556 0.5 L 111.56236506019113 0.5 L 111.56236506019113 3.5 L 118.56236506019113 0 L 111.56236506019113 -3.5 L 111.56236506019113 -0.5 L 83.95501065509556 -0.5 Z"/><text text-anchor="middle" pointer-events="none" font-size="8px" fill="#000000" x="68.28118253009556" y="3" transform="rotate(180 68.28118253009556 0)" font-family="sans-serif">GpLink</text></g><g class="relationship" transform="translate(141.7565718296437 159.95975637233573) rotate(279.12579211510194)"><path class="outline" fill="#A5ABB6" stroke="none" d="M 38.50762352901147,10.835724717245364 L 38.766442574113995,9.869798890956295 A 393.52368491151964 393.52368491151964 0 0 0 127.9678037609778,23.075418670493832 L 127.9356581401367,24.074901866481014 A 394.52368491151964 394.52368491151964 0 0 1 38.50762352901147,10.835724717245364 Z M 159.31390338289873,23.835552167618744 L 159.2665145006344,22.836675651808264 A 393.52368491151964 393.52368491151964 0 0 0 248.25604576948714,8.271835937589197 L 247.435473720319,5.386240416362428 L 255.12586399387763,6.8381004097346505 L 249.35014183504467,12.119296632558223 L 248.52956978587653,9.233701111331454 A 394.52368491151964 394.52368491151964 0 0 1 159.31390338289873,23.835552167618744"/><text text-anchor="middle" pointer-events="none" font-size="8px" fill="#000000" x="143.6233475098878" y="26.767330724086264" font-family="sans-serif">GpLink</text></g><g class="relationship" transform="translate(-533.6569260262796 -77.39049480512779) rotate(342.9343810523792)"><path class="outline" fill="#A5ABB6" stroke="none" d="M 21.40063509461097,12.933012701892217 L 21.90063509461097,12.06698729810778 A 373.0766499434757 373.0766499434757 0 0 0 183.51392792986806,61.21623627242252 L 183.44711851646667,62.21400202763812 A 374.0766499434757 374.0766499434757 0 0 1 21.40063509461097,12.933012701892217 Z M 227.26429292912744,62.57578997347298 L 227.21396812840644,61.57705706902232 A 373.0766499434757 373.0766499434757 0 0 0 389.6167986786919,15.10313185230611 L 388.15990365210854,12.480641264807904 L 395.97875922061826,12.140791888194645 L 391.55932538080305,18.599785968970384 L 390.1024303542197,15.977295381472178 A 374.0766499434757 374.0766499434757 0 0 1 227.26429292912744,62.57578997347298"/><text text-anchor="middle" pointer-events="none" font-size="8px" fill="#000000" x="205.3545320130016" y="65.53704735581249" font-family="sans-serif">MemberOf</text></g><g class="relationship" transform="translate(-134.22155747456895 -200.01053704106016) rotate(479.3415006998067)"><path class="outline" fill="#A5ABB6" stroke="none" d="M 21.40063509461097,-12.933012701892217 L 21.90063509461097,-12.06698729810778 A 510.39535313106467 510.39535313106467 0 0 1 248.7324077241488,-79.65815252773183 L 248.67683138756584,-80.6566069687616 A 511.39535313106467 511.39535313106467 0 0 0 21.40063509461097,-12.933012701892217 Z M 292.487863861294,-81.21538531383169 L 292.45777060349076,-80.21583821847565 A 510.39535313106467 510.39535313106467 0 0 1 520.9396303820683,-18.43187230919422 L 519.5063807420037,-15.79638459925237 L 527.3279766452767,-15.526871100700319 L 522.8506299021545,-21.945855922450015 L 521.4173802620899,-19.310368212508166 A 511.39535313106467 511.39535313106467 0 0 0 292.487863861294,-81.21538531383169"/><text text-anchor="middle" pointer-events="none" font-size="8px" fill="#000000" x="270.5827372238064" y="-77.90544959079853" transform="rotate(180 270.5827372238064 -80.90544959079853)" font-family="sans-serif">MemberOf</text></g><g class="relationship" transform="translate(-134.22155747456895 -200.01053704106016) rotate(538.8434587871359)"><path class="outline" fill="#A5ABB6" stroke="none" d="M 6.953439040707552 24.018736134675446 L 17.306200844808384 62.65576918623819 A 17.916697508022974 17.916697508022974 0 1 1 -17.306200844808384 62.65576918623819 L -8.765172356425198 30.780216918698923 L -4.901469051268926 31.815493099109005 L -6.4704761275630185 24.148145657226706 L -11.662949835292403 30.00375978339136 L -7.79924653013613 31.039035963801442 L -16.340275018519314 62.91458823134071 A 16.916697508022974 16.916697508022974 0 1 0 16.340275018519314 62.91458823134071 L 5.987513214418485 24.277555179777966 Z"/><text text-anchor="middle" pointer-events="none" font-size="8px" fill="#000000" x="0" y="94.20964923467838" transform="rotate(180 0 91.20964923467838)" font-family="sans-serif">MemberOf</text></g><g class="relationship" transform="translate(-406.6100866450795 284.55736921153164) rotate(323.06374440249215)"><path class="outline" fill="#A5ABB6" stroke="none" d="M 8.894581878976458 31.263179831843463 L 19.247343683077286 69.90021288340618 A 19.926316451256394 19.926316451256394 0 1 1 -19.247343683077286 69.90021288340618 L -10.706315194694104 38.024660615866935 L -6.842611889537831 39.05993679627702 L -8.411618965831924 31.392589354394723 L -13.60409267356131 37.248203480559376 L -9.740389368405035 38.283479660969455 L -18.28141785678822 70.15903192850871 A 18.926316451256394 18.926316451256394 0 1 0 18.28141785678822 70.15903192850871 L 7.92865605268739 31.521998876945982 Z"/><text text-anchor="middle" pointer-events="none" font-size="8px" fill="#000000" x="0" y="103.98383953098741" font-family="sans-serif">MemberOf</text></g><g class="relationship" transform="translate(-406.6100866450795 284.55736921153164) rotate(299.3415006998067)"><path class="outline" fill="#A5ABB6" stroke="none" d="M 32.5 0.5 L 256.2969686264899 0.5 L 256.2969686264899 -0.5 L 32.5 -0.5 Z M 300.0821248764899 0.5 L 523.8790935029798 0.5 L 523.8790935029798 3.5 L 530.8790935029798 0 L 523.8790935029798 -3.5 L 523.8790935029798 -0.5 L 300.0821248764899 -0.5 Z"/><text text-anchor="middle" pointer-events="none" font-size="8px" fill="#000000" x="278.1895467514899" y="3" font-family="sans-serif">MemberOf</text></g><g class="relationship" transform="translate(-533.6569260262796 -77.39049480512779) rotate(430.6584842843167)"><path class="outline" fill="#A5ABB6" stroke="none" d="M 21.40063509461097,12.933012701892217 L 21.90063509461097,12.06698729810778 A 337.3582764600536 337.3582764600536 0 0 0 162.5785688409502,56.100348412754556 L 162.49556745507192,57.09689784451507 A 338.3582764600536 338.3582764600536 0 0 1 21.40063509461097,12.933012701892217 Z M 206.30750588388364,57.898696484892355 L 206.26102340169408,56.899777379634315 A 337.3582764600536 337.3582764600536 0 0 0 348.4559181314823,18.04324836613694 L 347.0519850802752,15.392027517597853 L 354.8760889532747,15.20927472141021 L 350.32782886642514,21.578209497522387 L 348.92389581521803,18.9269886489833 A 338.3582764600536 338.3582764600536 0 0 1 206.30750588388364,57.898696484892355"/><text text-anchor="middle" pointer-events="none" font-size="8px" fill="#000000" x="184.3976922899044" y="60.70786202723224" font-family="sans-serif">MemberOf</text></g><g class="relationship" transform="translate(-406.6100866450795 284.55736921153164) rotate(388.9286576964337)"><path class="outline" fill="#A5ABB6" stroke="none" d="M 8.894581878976458 31.263179831843463 L 19.247343683077286 69.90021288340618 A 19.926316451256394 19.926316451256394 0 1 1 -19.247343683077286 69.90021288340618 L -10.706315194694104 38.024660615866935 L -6.842611889537831 39.05993679627702 L -8.411618965831924 31.392589354394723 L -13.60409267356131 37.248203480559376 L -9.740389368405035 38.283479660969455 L -18.28141785678822 70.15903192850871 A 18.926316451256394 18.926316451256394 0 1 0 18.28141785678822 70.15903192850871 L 7.92865605268739 31.521998876945982 Z"/><text text-anchor="middle" pointer-events="none" font-size="8px" fill="#000000" x="0" y="103.98383953098741" font-family="sans-serif">AddMember</text></g><g class="relationship" transform="translate(141.7565718296437 159.95975637233573) rotate(279.12579211510194)"><path class="outline" fill="#A5ABB6" stroke="none" d="M 38.50762352901147,-10.835724717245364 L 38.766442574113995,-9.869798890956295 A 393.52368491151964 393.52368491151964 0 0 1 124.86050725673685,-22.96319095375634 L 124.8204655507975,-23.96238896305448 A 394.52368491151964 394.52368491151964 0 0 0 38.50762352901147,-10.835724717245364 Z M 162.42701710902827,-23.67553044942275 L 162.37173741096456,-22.677059540992275 A 393.52368491151964 393.52368491151964 0 0 1 248.25604576948714,-8.271835937589197 L 247.435473720319,-5.386240416362428 L 255.12586399387763,-6.8381004097346505 L 249.35014183504467,-12.119296632558223 L 248.52956978587653,-9.233701111331454 A 394.52368491151964 394.52368491151964 0 0 0 162.42701710902827,-23.67553044942275"/><text text-anchor="middle" pointer-events="none" font-size="8px" fill="#000000" x="143.6233475098877" y="-20.767330724086264" font-family="sans-serif">Contains</text></g><g class="relationship" transform="translate(186.03403914641387 -115.67911411630232) rotate(536.9546511608182)"><path class="outline" fill="#A5ABB6" stroke="none" d="M 25 0.5 L 338.0672661083425 0.5 L 338.0672661083425 -0.5 L 25 -0.5 Z M 375.6414848583425 0.5 L 688.708750966685 0.5 L 688.708750966685 3.5 L 695.708750966685 0 L 688.708750966685 -3.5 L 688.708750966685 -0.5 L 375.6414848583425 -0.5 Z"/><text text-anchor="middle" pointer-events="none" font-size="8px" fill="#000000" x="356.8543754833425" y="3" transform="rotate(180 356.8543754833425 0)" font-family="sans-serif">Contains</text></g><g class="relationship" transform="translate(141.7565718296437 159.95975637233573) rotate(199.36222635834235)"><path class="outline" fill="#A5ABB6" stroke="none" d="M 40 0.5 L 343.16488978828806 0.5 L 343.16488978828806 -0.5 L 40 -0.5 Z M 380.73910853828806 0.5 L 683.9039983265761 0.5 L 683.9039983265761 3.5 L 690.9039983265761 0 L 683.9039983265761 -3.5 L 683.9039983265761 -0.5 L 380.73910853828806 -0.5 Z"/><text text-anchor="middle" pointer-events="none" font-size="8px" fill="#000000" x="361.95199916328806" y="3" transform="rotate(180 361.95199916328806 0)" font-family="sans-serif">Contains</text></g><g class="relationship" transform="translate(141.7565718296437 159.95975637233573) rotate(232.52372978105058)"><path class="outline" fill="#A5ABB6" stroke="none" d="M 40 0.5 L 212.00714760386347 0.5 L 212.00714760386347 -0.5 L 40 -0.5 Z M 249.58136635386347 0.5 L 421.58851395772695 0.5 L 421.58851395772695 3.5 L 428.58851395772695 0 L 421.58851395772695 -3.5 L 421.58851395772695 -0.5 L 249.58136635386347 -0.5 Z"/><text text-anchor="middle" pointer-events="none" font-size="8px" fill="#000000" x="230.79425697886347" y="3" transform="rotate(180 230.79425697886347 0)" font-family="sans-serif">Contains</text></g><g class="relationship" transform="translate(186.03403914641387 -115.67911411630232) rotate(194.75253652189258)"><path class="outline" fill="#A5ABB6" stroke="none" d="M 25 0.5 L 143.2993001364512 0.5 L 143.2993001364512 -0.5 L 25 -0.5 Z M 180.8735188864512 0.5 L 299.1728190229024 0.5 L 299.1728190229024 3.5 L 306.1728190229024 0 L 299.1728190229024 -3.5 L 299.1728190229024 -0.5 L 180.8735188864512 -0.5 Z"/><text text-anchor="middle" pointer-events="none" font-size="8px" fill="#000000" x="162.0864095114512" y="3" transform="rotate(180 162.0864095114512 0)" font-family="sans-serif">Contains</text></g><g class="relationship" transform="translate(186.03403914641387 -115.67911411630232) rotate(221.78011011069566)"><path class="outline" fill="#A5ABB6" stroke="none" d="M 6.953439040707552 24.018736134675446 L 17.306200844808384 62.65576918623819 A 17.916697508022974 17.916697508022974 0 1 1 -17.306200844808384 62.65576918623819 L -8.765172356425198 30.780216918698923 L -4.901469051268926 31.815493099109005 L -6.4704761275630185 24.148145657226706 L -11.662949835292403 30.00375978339136 L -7.79924653013613 31.039035963801442 L -16.340275018519314 62.91458823134071 A 16.916697508022974 16.916697508022974 0 1 0 16.340275018519314 62.91458823134071 L 5.987513214418485 24.277555179777966 Z"/><text text-anchor="middle" pointer-events="none" font-size="8px" fill="#000000" x="0" y="94.20964923467838" transform="rotate(180 0 91.20964923467838)" font-family="sans-serif">Contains</text></g><g class="relationship" transform="translate(-406.6100866450795 284.55736921153164) rotate(250.65848428431673)"><path class="outline" fill="#A5ABB6" stroke="none" d="M 15.816987298107785,-28.395825622994256 L 16.683012701892224,-27.895825622994256 A 202.25486092934452 202.25486092934452 0 0 1 170.7096793399408,-127.91635552716423 L 170.60520135177993,-128.91088272638495 A 203.25486092934452 203.25486092934452 0 0 0 15.816987298107785,-28.395825622994256 Z M 213.53312707659833,-128.86239322294222 L 213.42640260923838,-127.8681045887586 A 202.25486092934452 202.25486092934452 0 0 1 367.2267188780019,-27.49986681621188 L 364.6252606322045,-26.005739982448166 L 371.1465911977501,-21.678818714978597 L 370.6953298723984,-29.492035927896833 L 368.093871626601,-27.997909094133117 A 203.25486092934452 203.25486092934452 0 0 0 213.53312707659833,-128.86239322294222"/><text text-anchor="middle" pointer-events="none" font-size="8px" fill="#000000" x="192.06988316400296" y="-126.52312674061614" transform="rotate(180 192.06988316400296 -129.52312674061614)" font-family="sans-serif">GenericAll</text></g><g class="relationship" transform="translate(-406.6100866450795 284.55736921153164) rotate(299.3415006998067)"><path class="outline" fill="#A5ABB6" stroke="none" d="M 27.89582562299426,-16.683012701892217 L 28.39582562299426,-15.816987298107778 A 499.1454584701838 499.1454584701838 0 0 1 256.76988691800125,-82.23944251060931 L 256.7274169974994,-83.23854025650434 A 500.1454584701838 500.1454584701838 0 0 0 27.89582562299426,-16.683012701892217 Z M 299.6594974394467,-83.21921701257202 L 299.6161281711388,-82.22015790192518 A 499.1454584701838 499.1454584701838 0 0 1 527.9303049583447,-15.592152477680699 L 526.4279668371103,-12.995427584765407 L 534.2397193953527,-12.519484343619679 L 529.9334224533238,-19.054452334901086 L 528.4310843320894,-16.457727441985796 A 500.1454584701838 500.1454584701838 0 0 0 299.6594974394467,-83.21921701257202"/><text text-anchor="middle" pointer-events="none" font-size="8px" fill="#000000" x="278.1934396061901" y="-80.1897479404434" font-family="sans-serif">GenericAll</text></g><g class="relationship" transform="translate(-406.6100866450795 284.55736921153164) rotate(454.7935709903752)"><path class="outline" fill="#A5ABB6" stroke="none" d="M 8.894581878976458 31.263179831843463 L 19.247343683077286 69.90021288340618 A 19.926316451256394 19.926316451256394 0 1 1 -19.247343683077286 69.90021288340618 L -10.706315194694104 38.024660615866935 L -6.842611889537831 39.05993679627702 L -8.411618965831924 31.392589354394723 L -13.60409267356131 37.248203480559376 L -9.740389368405035 38.283479660969455 L -18.28141785678822 70.15903192850871 A 18.926316451256394 18.926316451256394 0 1 0 18.28141785678822 70.15903192850871 L 7.92865605268739 31.521998876945982 Z"/><text text-anchor="middle" pointer-events="none" font-size="8px" fill="#000000" x="0" y="103.98383953098741" transform="rotate(180 0 100.98383953098741)" font-family="sans-serif">GenericAll</text></g><g class="relationship" transform="translate(-406.6100866450795 284.55736921153164) rotate(347.1988311085506)"><path class="outline" fill="#A5ABB6" stroke="none" d="M 20.50757509325304,25.217838206210054 L 21.273619536372017,24.575050596523518 A 337.93513549881953 337.93513549881953 0 0 0 252.19406966545637,144.1315985873808 L 252.11135295559671,145.12817168851788 A 338.93513549881953 338.93513549881953 0 0 1 20.50757509325304,25.217838206210054 Z M 295.04021417264187,145.96229511830037 L 294.9962728387615,144.96326100518067 A 337.93513549881953 337.93513549881953 0 0 0 530.3867270419792,34.46730395103604 L 528.1652376329004,32.45112320384329 L 535.4613970202754,29.619858787717614 L 533.3487129207509,37.15554494729303 L 531.1272235116721,35.13936420010028 A 338.93513549881953 338.93513549881953 0 0 1 295.04021417264187,145.96229511830037"/><text text-anchor="middle" pointer-events="none" font-size="8px" fill="#000000" x="273.57227509008396" y="148.72579995935033" font-family="sans-serif">GenericAll</text></g><g class="relationship" transform="translate(-533.6569260262796 -77.39049480512779) rotate(342.9343810523792)"><path class="outline" fill="#A5ABB6" stroke="none" d="M 12.066987298107785,21.900635094610966 L 12.933012701892222,21.400635094610966 A 225.75082267808008 225.75082267808008 0 0 0 180.9693504675554,132.59854766611588 L 180.84766936237529,133.59111691238644 A 226.75082267808008 226.75082267808008 0 0 1 12.066987298107785,21.900635094610966 Z M 229.54363011364467,134.29175911318487 L 229.4505558314964,133.29609994559658 A 225.75082267808008 225.75082267808008 0 0 0 400.6165255177117,26.97866303454844 L 398.0626801340507,25.40453668753766 L 404.715127891347,21.28204486384128 L 404.0216526959263,29.07749816389614 L 401.46780731226534,27.503371816885362 A 226.75082267808008 226.75082267808008 0 0 1 229.54363011364467,134.29175911318487"/><text text-anchor="middle" pointer-events="none" font-size="8px" fill="#000000" x="205.18397821259026" y="137.75263114830872" font-family="sans-serif">HasSession</text></g><g class="relationship" transform="translate(-406.6100866450795 284.55736921153164) rotate(347.1988311085506)"><path class="outline" fill="#A5ABB6" stroke="none" d="M 7.92865605268739,31.52199887694598 L 8.894581878976458,31.26317983184346 A 280.82111789375097 280.82111789375097 0 0 0 255.59338761630315,238.3269655771715 L 255.50595272256092,239.32313581330402 A 281.82111789375097 281.82111789375097 0 0 1 7.92865605268739,31.52199887694598 Z M 290.8745099943791,240.1981971887094 L 290.8364448633675,239.1989219284327 A 280.82111789375097 280.82111789375097 0 0 0 547.473167509254,44.5882729161661 L 544.6173329769966,43.669464380960875 L 550.0930265134424,38.07779376343295 L 551.2809468855972,45.81335096310639 L 548.4251123533398,44.894542427901165 A 281.82111789375097 281.82111789375097 0 0 1 290.8745099943791,240.1981971887094"/><text text-anchor="middle" pointer-events="none" font-size="8px" fill="#000000" x="273.1888529044173" y="242.81638137139305" font-family="sans-serif">DCSync</text></g></g><g class="layer nodes"><g class="node selected" transform="translate(-406.6100866450795,284.55736921153164)"><circle class="outline" cx="0" cy="0" r="32.5" fill="#8DCC93" stroke="#5db665" stroke-width="2px"/><text text-anchor="middle" pointer-events="none" font-family="sans-serif" dy="2.03125" font-size="32.5" fill="#2A2C34"/><text text-anchor="middle" pointer-events="none" x="0" y="5" font-size="10px" fill="#2A2C34" font-family="sans-serif"> Group</text></g><g class="node" transform="translate(-134.22155747456895,-200.01053704106016)"><circle class="outline" cx="0" cy="0" r="25" fill="#D9C8AE" stroke="#c0a378" stroke-width="2px"/><text text-anchor="middle" pointer-events="none" font-family="sans-serif" dy="1.5625" font-size="25" fill="#2A2C34"/><text text-anchor="middle" pointer-events="none" x="0" y="5" font-size="10px" fill="#2A2C34" font-family="sans-serif"> User</text></g><g class="node" transform="translate(186.03403914641387,-115.67911411630232)"><circle class="outline" cx="0" cy="0" r="25" fill="#C990C0" stroke="#b261a5" stroke-width="2px"/><text text-anchor="middle" pointer-events="none" font-family="sans-serif" dy="1.5625" font-size="25" fill="#FFFFFF"/><text text-anchor="middle" pointer-events="none" x="0" y="5" font-size="10px" fill="#FFFFFF" font-family="sans-serif"> OU</text></g><g class="node" transform="translate(246.8801825195805,41.25402740784165)"><circle class="outline" cx="0" cy="0" r="25" fill="#FFC454" stroke="#d7a013" stroke-width="2px"/><text text-anchor="middle" pointer-events="none" font-family="sans-serif" dy="1.5625" font-size="25" fill="#2A2C34"/><text text-anchor="middle" pointer-events="none" x="0" y="5" font-size="10px" fill="#2A2C34" font-family="sans-serif"> GPO</text></g><g class="node" transform="translate(-533.6569260262796,-77.39049480512779)"><circle class="outline" cx="0" cy="0" r="25" fill="#F16667" stroke="#eb2728" stroke-width="2px"/><text text-anchor="middle" pointer-events="none" font-family="sans-serif" dy="1.5625" font-size="25" fill="#FFFFFF"/><text text-anchor="middle" pointer-events="none" x="0" y="5" font-size="10px" fill="#FFFFFF" font-family="sans-serif"> Computer</text></g><g class="node" transform="translate(141.7565718296437,159.95975637233573)"><circle class="outline" cx="0" cy="0" r="40" fill="#569480" stroke="#447666" stroke-width="2px"/><text text-anchor="middle" pointer-events="none" font-family="sans-serif" dy="2.5" font-size="40" fill="#FFFFFF"/><text text-anchor="middle" pointer-events="none" x="0" y="5" font-size="10px" fill="#FFFFFF" font-family="sans-serif"> Domain</text></g></g></svg>