<svg xmlns="http://www.w3.org/2000/svg" width="1033.6593017578125" height="825.4275512695312" viewBox="-618.4717407226562 -355.169189453125 1033.6593017578125 825.4275512695312"><title>Neo4j Graph Visualization</title><desc>Created using Neo4j (http://www.neo4j.com/)</desc><g class="layer relationships"><g class="relationship" transform="translate(-412.1102424463292 256.31573117558287) rotate(361.59872919495587)"><path class="outline" fill="#D9C8AE" stroke="none" d="M 9.869798890956295,-38.766442574113995 L 10.835724717245364,-38.50762352901147 A 209.3235726591577 209.3235726591577 0 0 1 180.03860932473455,-191.0385562553214 L 179.88101522362103,-192.0260602296396 A 210.3235726591577 210.3235726591577 0 0 0 9.869798890956295,-38.766442574113995 Z M 246.64356022067136,-191.95034040763596 L 246.48372654061436,-190.96319644917833 A 209.3235726591577 209.3235726591577 0 0 1 415.34018543431216,-38.0488482416587 L 412.4406541498362,-37.27896621800513 L 417.6198320369165,-31.411588915156944 L 419.20622714694684,-39.075357606530126 L 416.30669586247086,-38.305475582876554 A 210.3235726591577 210.3235726591577 0 0 0 246.64356022067136,-191.95034040763596"/><text text-anchor="middle" pointer-events="none" font-size="8px" fill="#000000" x="213.26474425096998" y="-191.15413404371827" font-family="sans-serif">WRITE_OWNER</text></g><g class="relationship" transform="translate(-494.01956915083 -107.37143008987182) rotate(347.3434359884983)"><path class="outline" fill="#A5ABB6" stroke="none" d="M 17.324116139070416,-18.03122292025696 L 18.031222920256962,-17.324116139070412 A 364.76029439227 364.76029439227 0 0 1 241.57917967121324,-122.5364269837421 L 241.48493552937566,-123.53197609942112 A 365.76029439227 365.76029439227 0 0 0 17.324116139070416,-18.03122292025696 Z M 303.9566301879211,-124.0865465066185 L 303.88007477711085,-123.08948117822939 A 364.76029439227 364.76029439227 0 0 1 529.2606245512376,-21.862374609303977 L 527.1772980939489,-19.703728998657983 L 534.6446853856263,-17.361053810738184 L 532.0383931609557,-24.740568756831973 L 529.9550667036671,-22.58192314618598 A 365.76029439227 365.76029439227 0 0 0 303.9566301879211,-124.0865465066185"/><text text-anchor="middle" pointer-events="none" font-size="8px" fill="#000000" x="272.7133590741246" y="-121.64554177158493" font-family="sans-serif">HAS_SESSION</text></g><g class="relationship" transform="translate(-412.1102424463292 256.31573117558287) rotate(361.59872919495587)"><path class="outline" fill="#A5ABB6" stroke="none" d="M 25.328482165902084,-30.963171529602388 L 26.094526609021063,-30.32038391991585 A 244.0227126114156 244.0227126114156 0 0 1 191.2055338921378,-116.51070223398249 L 191.11611092214392,-117.50669597514629 A 245.0227126114156 245.0227126114156 0 0 0 25.328482165902084,-30.963171529602388 Z M 235.37660593787277,-117.4668670120444 L 235.28539057216298,-116.47103582300763 A 244.0227126114156 244.0227126114156 0 0 1 400.24100935419574,-29.98369842982597 L 397.939409174226,-28.059474791169812 L 405.1144645410551,-24.93400194967255 L 403.3098095941554,-32.549329948034185 L 401.00820941418567,-30.625106309378026 A 245.0227126114156 245.0227126114156 0 0 0 235.37660593787277,-117.4668670120444"/><text text-anchor="middle" pointer-events="none" font-size="8px" fill="#000000" x="213.2468096637927" y="-114.98822137823338" font-family="sans-serif">DC_SYNC</text></g><g class="relationship" transform="translate(-412.1102424463292 256.31573117558287) rotate(356.83504070647996)"><path class="outline" fill="#A5ABB6" stroke="none" d="M 10.835724717245366 38.50762352901147 L 21.188486521346196 77.14465658057419 A 21.935935394489817 21.935935394489817 0 1 1 -21.188486521346196 77.14465658057419 L -12.647458032963009 45.26910431303495 L -8.783754727806736 46.30438049344503 L -10.352761804100831 38.63703305156273 L -15.545235511830214 44.49264717772739 L -11.68153220667394 45.52792335813747 L -20.22256069505713 77.40347562567672 A 20.935935394489817 20.935935394489817 0 1 0 20.22256069505713 77.40347562567672 L 9.869798890956297 38.76644257411399 Z"/><text text-anchor="middle" pointer-events="none" font-size="8px" fill="#000000" x="0" y="113.75802982729645" font-family="sans-serif">MEMBER_OF</text></g><g class="relationship" transform="translate(-494.01956915083 -107.37143008987182) rotate(437.307663729528)"><path class="outline" fill="#A5ABB6" stroke="none" d="M 12.066987298107785,21.900635094610966 L 12.933012701892222,21.400635094610966 A 197.84746327246185 197.84746327246185 0 0 0 146.4305301524453,116.67138047908091 L 146.23925445352168,117.65291682940182 A 198.84746327246185 198.84746327246185 0 0 1 12.066987298107785,21.900635094610966 Z M 202.79129191574782,120.46029013737748 L 202.6981685253819,119.46463556165017 A 197.84746327246185 197.84746327246185 0 0 0 344.97499740520817,37.88396349115278 L 342.53825569353285,36.134023540588316 L 349.4643142418045,32.4898894890044 L 348.22398635410866,40.21721675857205 L 345.78724464243334,38.46727680800759 A 198.84746327246185 198.84746327246185 0 0 1 202.79129191574782,120.46029013737748"/><text text-anchor="middle" pointer-events="none" font-size="8px" fill="#000000" x="174.4396275280648" y="123.58041793017009" font-family="sans-serif">MEMBER_OF</text></g><g class="relationship" transform="translate(45.18535159042973 -228.45704825377885) rotate(493.32933511190157)"><path class="outline" fill="#A5ABB6" stroke="none" d="M 21.40063509461097,12.933012701892217 L 21.90063509461097,12.06698729810778 A 620.2480935266994 620.2480935266994 0 0 0 293.7834603335571,93.9844768593764 L 293.72180561518957,94.98257439754741 A 621.2480935266994 621.2480935266994 0 0 1 21.40063509461097,12.933012701892217 Z M 350.4123344722642,95.892297405396 L 350.38273655026507,94.8927355198615 A 620.2480935266994 620.2480935266994 0 0 0 624.753983926749,21.741082298595863 L 623.338118379766,19.09621467376727 L 631.1613193091796,18.87820729310689 L 626.6418046560598,25.267572465033986 L 625.2259391090768,22.622704840205394 A 621.2480935266994 621.2480935266994 0 0 1 350.4123344722642,95.892297405396"/><text text-anchor="middle" pointer-events="none" font-size="8px" fill="#000000" x="322.0647090273058" y="98.58456559742922" transform="rotate(180 322.0647090273058 95.58456559742922)" font-family="sans-serif">MEMBER_OF</text></g><g class="relationship" transform="translate(-412.1102424463292 256.31573117558287) rotate(313.32933511190157)"><path class="outline" fill="#A5ABB6" stroke="none" d="M 40 0.5 L 306.64670423678024 0.5 L 306.64670423678024 -0.5 L 40 -0.5 Z M 367.77951673678024 0.5 L 634.4262209735605 0.5 L 634.4262209735605 3.5 L 641.4262209735605 0 L 634.4262209735605 -3.5 L 634.4262209735605 -0.5 L 367.77951673678024 -0.5 Z"/><text text-anchor="middle" pointer-events="none" font-size="8px" fill="#000000" x="337.21311048678024" y="3" font-family="sans-serif">GENERIC_ALL</text></g><g class="relationship" transform="translate(-412.1102424463292 256.31573117558287) rotate(442.071352218004)"><path class="outline" fill="#A5ABB6" stroke="none" d="M 10.835724717245366 38.50762352901147 L 21.188486521346196 77.14465658057419 A 21.935935394489817 21.935935394489817 0 1 1 -21.188486521346196 77.14465658057419 L -12.647458032963009 45.26910431303495 L -8.783754727806736 46.30438049344503 L -10.352761804100831 38.63703305156273 L -15.545235511830214 44.49264717772739 L -11.68153220667394 45.52792335813747 L -20.22256069505713 77.40347562567672 A 20.935935394489817 20.935935394489817 0 1 0 20.22256069505713 77.40347562567672 L 9.869798890956297 38.76644257411399 Z"/><text text-anchor="middle" pointer-events="none" font-size="8px" fill="#000000" x="0" y="113.75802982729645" font-family="sans-serif">GENERIC_ALL</text></g><g class="relationship" transform="translate(-412.1102424463292 256.31573117558287) rotate(361.59872919495587)"><path class="outline" fill="#A5ABB6" stroke="none" d="M 36.04100235059565,-17.357884363146304 L 36.46362061233634,-16.45157657610965 A 417.78400266056207 417.78400266056207 0 0 1 182.73098968885245,-54.49478095256006 L 182.65847427486335,-55.4921482443508 A 418.78400266056207 418.78400266056207 0 0 0 36.04100235059565,-17.357884363146304 Z M 243.80989563406294,-55.46178011486688 L 243.7363896600079,-54.46448533809411 A 417.78400266056207 417.78400266056207 0 0 1 389.9659016761191,-16.27602541465468 L 388.69534705256115,-13.558362641506474 L 396.5188739173912,-13.764341755210893 L 391.6599745075297,-19.899575778852284 L 390.38941988397175,-17.18191300570408 A 418.78400266056207 418.78400266056207 0 0 0 243.80989563406294,-55.46178011486688"/><text text-anchor="middle" pointer-events="none" font-size="8px" fill="#000000" x="213.2344916920442" y="-53.09463274810486" font-family="sans-serif">GENERIC_ALL</text></g><g class="relationship" transform="translate(-412.1102424463292 256.31573117558287) rotate(257.307663729528)"><path class="outline" fill="#A5ABB6" stroke="none" d="M 34.39101615137755,-20.433012701892217 L 34.89101615137755,-19.566987298107776 A 304.5598920589475 304.5598920589475 0 0 1 160.02033189439396,-59.157661893510465 L 159.9311847972404,-60.153680364759396 A 305.5598920589475 305.5598920589475 0 0 0 34.39101615137755,-20.433012701892217 Z M 221.05813402891602,-59.485386426083664 L 220.94723213135438,-58.49155506759405 A 304.5598920589475 304.5598920589475 0 0 1 345.18106137315107,-16.174621752966274 L 343.6246177640722,-13.609961289716308 L 351.4246763889141,-12.970363408990575 L 347.2563195185896,-19.59416903729957 L 345.6998759095107,-17.0295085740496 A 305.5598920589475 305.5598920589475 0 0 0 221.05813402891602,-59.485386426083664"/><text text-anchor="middle" pointer-events="none" font-size="8px" fill="#000000" x="190.5059477540665" y="-57.8520458971355" transform="rotate(180 190.5059477540665 -60.8520458971355)" font-family="sans-serif">GENERIC_ALL</text></g><g class="relationship" transform="translate(-412.1102424463292 256.31573117558287) rotate(361.59872919495587)"><path class="outline" fill="#A5ABB6" stroke="none" d="M 40 0.5 L 197.78675093824845 0.5 L 197.78675093824845 -0.5 L 40 -0.5 Z M 228.67346968824845 0.5 L 386.4602206264969 0.5 L 386.4602206264969 3.5 L 393.4602206264969 0 L 386.4602206264969 -3.5 L 386.4602206264969 -0.5 L 228.67346968824845 -0.5 Z"/><text text-anchor="middle" pointer-events="none" font-size="8px" fill="#000000" x="213.23011031324845" y="3" font-family="sans-serif">OWNS</text></g><g class="relationship" transform="translate(-412.1102424463292 256.31573117558287) rotate(257.307663729528)"><path class="outline" fill="#A5ABB6" stroke="none" d="M 40 0.5 L 166.8027203329986 0.5 L 166.8027203329986 -0.5 L 40 -0.5 Z M 213.9941265829986 0.5 L 340.7968469159972 0.5 L 340.7968469159972 3.5 L 347.7968469159972 0 L 340.7968469159972 -3.5 L 340.7968469159972 -0.5 L 213.9941265829986 -0.5 Z"/><text text-anchor="middle" pointer-events="none" font-size="8px" fill="#000000" x="190.3984234579986" y="3" transform="rotate(180 190.3984234579986 0)" font-family="sans-serif">ADMIN_TO</text></g><g class="relationship" transform="translate(-412.1102424463292 256.31573117558287) rotate(257.307663729528)"><path class="outline" fill="#A5ABB6" stroke="none" d="M 34.39101615137755,20.433012701892217 L 34.89101615137755,19.566987298107776 A 304.5598920589475 304.5598920589475 0 0 0 168.4334018117106,59.79333016888404 L 168.37187841070573,60.791435810150915 A 305.5598920589475 305.5598920589475 0 0 1 34.39101615137755,20.433012701892217 Z M 212.63340132045172,60.307529646847456 L 212.550070884091,59.31100767600293 A 304.5598920589475 304.5598920589475 0 0 0 345.18106137315107,16.174621752966274 L 343.6246177640722,13.609961289716308 L 351.4246763889141,12.970363408990575 L 347.2563195185896,19.59416903729957 L 345.6998759095107,17.0295085740496 A 305.5598920589475 305.5598920589475 0 0 1 212.63340132045172,60.307529646847456"/><text text-anchor="middle" pointer-events="none" font-size="8px" fill="#000000" x="190.50594775406665" y="63.8520458971355" transform="rotate(180 190.50594775406665 60.8520458971355)" font-family="sans-serif">CAN_RDP</text></g><g class="relationship" transform="translate(45.18535159042973 -228.45704825377885) rotate(527.3434359884983)"><path class="outline" fill="#A5ABB6" stroke="none" d="M 24.018736134675446,6.953439040707552 L 24.277555179777966,5.987513214418485 A 972.4096822672515 972.4096822672515 0 0 0 250.70530127790477,38.79367792000892 L 250.67933444543158,39.79334072496431 A 973.4096822672515 973.4096822672515 0 0 1 24.018736134675446,6.953439040707552 Z M 294.92849131114497,39.936652139871285 L 294.9090002468335,38.93684210870936 A 972.4096822672515 972.4096822672515 0 0 0 521.5444951016931,7.598030426372721 L 520.7868243411456,4.695284309570326 L 528.4438478343233,6.313923004562296 L 522.5547227824231,11.468358582109246 L 521.7970520218756,8.565612465306852 A 973.4096822672515 973.4096822672515 0 0 1 294.92849131114497,39.936652139871285"/><text text-anchor="middle" pointer-events="none" font-size="8px" fill="#000000" x="272.8047177997623" y="42.616467056099395" transform="rotate(180 272.8047177997623 39.616467056099395)" font-family="sans-serif">CAN_RDP</text></g><g class="relationship" transform="translate(13.684166386813843 268.19979456350364) rotate(303.24900212111845)"><path class="outline" fill="#A5ABB6" stroke="none" d="M 31.26317983184346,-8.894581878976458 L 31.52199887694598,-7.92865605268739 A 687.2123910716077 687.2123910716077 0 0 1 189.7189685710153,-31.063381616755464 L 189.69035051144417,-32.06297203621057 A 688.2123910716077 688.2123910716077 0 0 0 31.26317983184346,-8.894581878976458 Z M 229.50669366259623,-32.05065143722493 L 229.47745699059365,-31.05107892009073 A 687.2123910716077 687.2123910716077 0 0 1 387.660078970042,-7.818454207889825 L 386.88182863185176,-4.921157811055899 L 394.5501456190195,-6.48541948491837 L 388.6977460876289,-11.68151607033506 L 387.9194957494387,-8.784219673501134 A 688.2123910716077 688.2123910716077 0 0 0 229.50669366259623,-32.05065143722493"/><text text-anchor="middle" pointer-events="none" font-size="8px" fill="#000000" x="209.59845648843557" y="-28.84481751797705" font-family="sans-serif">GP_LINK</text></g><g class="relationship" transform="translate(386.18755997958044 62.08199566309386) rotate(225.21805591886437)"><path class="outline" fill="#A5ABB6" stroke="none" d="M 25 0.5 L 78.06582962183435 0.5 L 78.06582962183435 -0.5 L 25 -0.5 Z M 117.85879837183435 0.5 L 170.9246279936687 0.5 L 170.9246279936687 3.5 L 177.9246279936687 0 L 170.9246279936687 -3.5 L 170.9246279936687 -0.5 L 117.85879837183435 -0.5 Z"/><text text-anchor="middle" pointer-events="none" font-size="8px" fill="#000000" x="97.96231399683435" y="3" transform="rotate(180 97.96231399683435 0)" font-family="sans-serif">GP_LINK</text></g><g class="relationship" transform="translate(13.684166386813843 268.19979456350364) rotate(346.3207996955784)"><path class="outline" fill="#A5ABB6" stroke="none" d="M 8.894581878976458 31.263179831843463 L 19.247343683077286 69.90021288340618 A 19.926316451256394 19.926316451256394 0 1 1 -19.247343683077286 69.90021288340618 L -10.706315194694104 38.024660615866935 L -6.842611889537831 39.05993679627702 L -8.411618965831924 31.392589354394723 L -13.60409267356131 37.248203480559376 L -9.740389368405035 38.283479660969455 L -18.28141785678822 70.15903192850871 A 18.926316451256394 18.926316451256394 0 1 0 18.28141785678822 70.15903192850871 L 7.92865605268739 31.521998876945982 Z"/><text text-anchor="middle" pointer-events="none" font-size="8px" fill="#000000" x="0" y="103.98383953098741" font-family="sans-serif">GP_LINK</text></g><g class="relationship" transform="translate(386.18755997958044 62.08199566309386) rotate(511.04287019620085)"><path class="outline" fill="#A5ABB6" stroke="none" d="M 25 0.5 L 185.71692562169093 0.5 L 185.71692562169093 -0.5 L 25 -0.5 Z M 225.50989437169093 0.5 L 386.22681999338187 0.5 L 386.22681999338187 3.5 L 393.22681999338187 0 L 386.22681999338187 -3.5 L 386.22681999338187 -0.5 L 225.50989437169093 -0.5 Z"/><text text-anchor="middle" pointer-events="none" font-size="8px" fill="#000000" x="205.61340999669093" y="3" transform="rotate(180 205.61340999669093 0)" font-family="sans-serif">GP_LINK</text></g><g class="relationship" transform="translate(243.245308276621 -81.95243537496248) rotate(216.49026979684317)"><path class="outline" fill="#A5ABB6" stroke="none" d="M 25 0.5 L 96.30697657636512 0.5 L 96.30697657636512 -0.5 L 25 -0.5 Z M 143.04916407636512 0.5 L 214.35614065273023 0.5 L 214.35614065273023 3.5 L 221.35614065273023 0 L 214.35614065273023 -3.5 L 214.35614065273023 -0.5 L 143.04916407636512 -0.5 Z"/><text text-anchor="middle" pointer-events="none" font-size="8px" fill="#000000" x="119.67807032636512" y="3" transform="rotate(180 119.67807032636512 0)" font-family="sans-serif">CONTAINS</text></g><g class="relationship" transform="translate(243.245308276621 -81.95243537496248) rotate(181.97462879519912)"><path class="outline" fill="#A5ABB6" stroke="none" d="M 25 0.5 L 341.98037526579196 0.5 L 341.98037526579196 -0.5 L 25 -0.5 Z M 388.72256276579196 0.5 L 705.7029380315839 0.5 L 705.7029380315839 3.5 L 712.7029380315839 0 L 705.7029380315839 -3.5 L 705.7029380315839 -0.5 L 388.72256276579196 -0.5 Z"/><text text-anchor="middle" pointer-events="none" font-size="8px" fill="#000000" x="365.35146901579196" y="3" transform="rotate(180 365.35146901579196 0)" font-family="sans-serif">CONTAINS</text></g><g class="relationship" transform="translate(13.684166386813843 268.19979456350364) rotate(303.24900212111845)"><path class="outline" fill="#A5ABB6" stroke="none" d="M 31.26317983184346,8.894581878976458 L 31.52199887694598,7.92865605268739 A 687.2123910716077 687.2123910716077 0 0 0 186.24857328213008,30.9552501627644 L 186.21490526226435,31.954683234279628 A 688.2123910716077 688.2123910716077 0 0 1 31.26317983184346,8.894581878976458 Z M 232.98207122938376,31.94021180240088 L 232.94778469543178,30.940799758452158 A 687.2123910716077 687.2123910716077 0 0 0 387.660078970042,7.818454207889825 L 386.88182863185176,4.921157811055899 L 394.5501456190195,6.48541948491837 L 388.6977460876289,11.68151607033506 L 387.9194957494387,8.784219673501134 A 688.2123910716077 688.2123910716077 0 0 1 232.98207122938376,31.94021180240088"/><text text-anchor="middle" pointer-events="none" font-size="8px" fill="#000000" x="209.59845648843554" y="34.84481751797705" font-family="sans-serif">CONTAINS</text></g><g class="relationship" transform="translate(243.245308276621 -81.95243537496248) rotate(220.85416285785377)"><path class="outline" fill="#A5ABB6" stroke="none" d="M 6.953439040707552 24.018736134675446 L 17.306200844808384 62.65576918623819 A 17.916697508022974 17.916697508022974 0 1 1 -17.306200844808384 62.65576918623819 L -8.765172356425198 30.780216918698923 L -4.901469051268926 31.815493099109005 L -6.4704761275630185 24.148145657226706 L -11.662949835292403 30.00375978339136 L -7.79924653013613 31.039035963801442 L -16.340275018519314 62.91458823134071 A 16.916697508022974 16.916697508022974 0 1 0 16.340275018519314 62.91458823134071 L 5.987513214418485 24.277555179777966 Z"/><text text-anchor="middle" pointer-events="none" font-size="8px" fill="#000000" x="0" y="94.20964923467838" transform="rotate(180 0 91.20964923467838)" font-family="sans-serif">CONTAINS</text></g><g class="relationship" transform="translate(13.684166386813843 268.19979456350364) rotate(273.629206992898)"><path class="outline" fill="#A5ABB6" stroke="none" d="M 32.5 0.5 L 225.7063284659122 0.5 L 225.7063284659122 -0.5 L 32.5 -0.5 Z M 272.4485159659122 0.5 L 465.6548444318244 0.5 L 465.6548444318244 3.5 L 472.6548444318244 0 L 465.6548444318244 -3.5 L 465.6548444318244 -0.5 L 272.4485159659122 -0.5 Z"/><text text-anchor="middle" pointer-events="none" font-size="8px" fill="#000000" x="249.0774222159122" y="3" font-family="sans-serif">CONTAINS</text></g><g class="relationship" transform="translate(13.684166386813843 268.19979456350364) rotate(216.49199378721102)"><path class="outline" fill="#A5ABB6" stroke="none" d="M 32.5 0.5 L 292.6386360551614 0.5 L 292.6386360551614 -0.5 L 32.5 -0.5 Z M 339.3808235551614 0.5 L 599.5194596103228 0.5 L 599.5194596103228 3.5 L 606.5194596103228 0 L 599.5194596103228 -3.5 L 599.5194596103228 -0.5 L 339.3808235551614 -0.5 Z"/><text text-anchor="middle" pointer-events="none" font-size="8px" fill="#000000" x="316.0097298051614" y="3" transform="rotate(180 316.0097298051614 0)" font-family="sans-serif">CONTAINS</text></g><g class="relationship" transform="translate(-412.1102424463292 256.31573117558287) rotate(361.59872919495587)"><path class="outline" fill="#A5ABB6" stroke="none" d="M 36.04100235059565,17.357884363146304 L 36.46362061233634,16.45157657610965 A 417.78400266056207 417.78400266056207 0 0 0 180.07969413941845,54.293530169119606 L 180.00083263383044,55.29041575078702 A 418.78400266056207 418.78400266056207 0 0 1 36.04100235059565,17.357884363146304 Z M 246.46733560139285,55.25740812277769 L 246.38748401730862,54.260601358896565 A 417.78400266056207 417.78400266056207 0 0 0 389.9659016761191,16.27602541465468 L 388.69534705256115,13.558362641506474 L 396.5188739173912,13.764341755210893 L 391.6599745075297,19.899575778852284 L 390.38941988397175,17.18191300570408 A 418.78400266056207 418.78400266056207 0 0 1 246.46733560139285,55.25740812277769"/><text text-anchor="middle" pointer-events="none" font-size="8px" fill="#000000" x="213.23449169204434" y="59.09463274810486" font-family="sans-serif">GET_CHANGES</text></g><g class="relationship" transform="translate(-412.1102424463292 256.31573117558287) rotate(313.32933511190157)"><path class="outline" fill="#A5ABB6" stroke="none" d="M 34.39101615137755,20.433012701892217 L 34.89101615137755,19.566987298107776 A 597.5085004008506 597.5085004008506 0 0 0 300.9799783336952,98.72438729125395 L 300.92530917334653,99.72289181448195 A 598.5085004008506 598.5085004008506 0 0 1 34.39101615137755,20.433012701892217 Z M 373.61186262643247,99.28203193925833 L 373.5450856362179,98.28426401354716 A 597.5085004008506 597.5085004008506 0 0 0 638.6542927384977,15.905030716930364 L 637.1228884512847,13.3253406368809 L 644.9288036398153,12.761702393441578 L 640.6961651214484,19.344617490329647 L 639.1647608342354,16.764927410280183 A 598.5085004008506 598.5085004008506 0 0 1 373.61186262643247,99.28203193925833"/><text text-anchor="middle" pointer-events="none" font-size="8px" fill="#000000" x="337.27225224217153" y="103.10694824371092" font-family="sans-serif">GENERIC_WRITE</text></g><g class="relationship" transform="translate(-412.1102424463292 256.31573117558287) rotate(346.32508867403317)"><path class="outline" fill="#A5ABB6" stroke="none" d="M 40 0.5 L 378.4578445151286 0.5 L 378.4578445151286 -0.5 L 40 -0.5 Z M 451.1297195151286 0.5 L 789.5875640302572 0.5 L 789.5875640302572 3.5 L 796.5875640302572 0 L 789.5875640302572 -3.5 L 789.5875640302572 -0.5 L 451.1297195151286 -0.5 Z"/><text text-anchor="middle" pointer-events="none" font-size="8px" fill="#000000" x="414.7937820151286" y="3" font-family="sans-serif">GENERIC_WRITE</text></g><g class="relationship" transform="translate(45.18535159042973 -228.45704825377885) rotate(527.3434359884983)"><path class="outline" fill="#A5ABB6" stroke="none" d="M 24.018736134675446,-6.953439040707552 L 24.277555179777966,-5.987513214418485 A 972.4096822672515 972.4096822672515 0 0 1 219.33073901390577,-37.471488873198496 L 219.27250742426685,-38.46979197444989 A 973.4096822672515 973.4096822672515 0 0 0 24.018736134675446,-6.953439040707552 Z M 326.34323262496775,-38.81656597446499 L 326.2914686730056,-37.8179066265003 A 972.4096822672515 972.4096822672515 0 0 1 521.5444951016931,-7.598030426372721 L 520.7868243411456,-4.695284309570326 L 528.4438478343233,-6.313923004562296 L 522.5547227824231,-11.468358582109246 L 521.7970520218756,-8.565612465306852 A 973.4096822672515 973.4096822672515 0 0 0 326.34323262496775,-38.81656597446499"/><text text-anchor="middle" pointer-events="none" font-size="8px" fill="#000000" x="272.80471779976216" y="-36.616467056099395" transform="rotate(180 272.80471779976216 -39.616467056099395)" font-family="sans-serif">ALLOWED_TO_DELEGATE</text></g><g class="relationship" transform="translate(45.18535159042973 -228.45704825377885) rotate(527.3434359884983)"><path class="outline" fill="#A5ABB6" stroke="none" d="M 17.324116139070416,-18.03122292025696 L 18.031222920256962,-17.324116139070412 A 364.76029439227 364.76029439227 0 0 1 236.50691583319423,-122.02046763421384 L 236.39876594581364,-123.0146022336819 A 365.76029439227 365.76029439227 0 0 0 17.324116139070416,-18.03122292025696 Z M 309.05118310007487,-123.65954840947126 L 308.9606990234409,-122.66365050713603 A 364.76029439227 364.76029439227 0 0 1 529.2606245512376,-21.862374609303977 L 527.1772980939489,-19.703728998657983 L 534.6446853856263,-17.361053810738184 L 532.0383931609557,-24.740568756831973 L 529.9550667036671,-22.58192314618598 A 365.76029439227 365.76029439227 0 0 0 309.05118310007487,-123.65954840947126"/><text text-anchor="middle" pointer-events="none" font-size="8px" fill="#000000" x="272.7133590741246" y="-121.64554177158493" transform="rotate(180 272.7133590741246 -124.64554177158493)" font-family="sans-serif">EXECUTE_DCOM</text></g><g class="relationship" transform="translate(-412.1102424463292 256.31573117558287) rotate(257.307663729528)"><path class="outline" fill="#A5ABB6" stroke="none" d="M 19.566987298107783,34.89101615137754 L 20.433012701892224,34.39101615137754 A 192.53240003160465 192.53240003160465 0 0 0 154.6996171611035,127.89925280853292 L 154.53096323576722,128.88492813716232 A 193.53240003160465 193.53240003160465 0 0 1 19.566987298107783,34.89101615137754 Z M 226.95262672518248,127.52441758202814 L 226.7470711461795,126.54577213860098 A 192.53240003160465 192.53240003160465 0 0 0 357.4068956026586,28.06063788606841 L 354.7543145296466,26.659276529708723 L 361.1188356129999,22.104842275100246 L 360.94367036667467,29.92911969454799 L 358.29108929366265,28.527758338188303 A 193.53240003160465 193.53240003160465 0 0 1 226.95262672518248,127.52441758202814"/><text text-anchor="middle" pointer-events="none" font-size="8px" fill="#000000" x="190.79662163074337" y="134.12316342257878" transform="rotate(180 190.79662163074337 131.12316342257878)" font-family="sans-serif">EXECUTE_DCOM</text></g><g class="relationship" transform="translate(-412.1102424463292 256.31573117558287) rotate(361.59872919495587)"><path class="outline" fill="#A5ABB6" stroke="none" d="M 25.328482165902084,30.963171529602388 L 26.094526609021063,30.32038391991585 A 244.0227126114156 244.0227126114156 0 0 0 184.5887288212772,115.8255923126071 L 184.47219032174897,116.8187784875651 A 245.0227126114156 245.0227126114156 0 0 1 25.328482165902084,30.963171529602388 Z M 242.01927769803297,116.76699323710834 L 241.90095189962344,115.77401841092653 A 244.0227126114156 244.0227126114156 0 0 0 400.24100935419574,29.98369842982597 L 397.939409174226,28.059474791169812 L 405.1144645410551,24.93400194967255 L 403.3098095941554,32.549329948034185 L 401.00820941418567,30.625106309378026 A 245.0227126114156 245.0227126114156 0 0 1 242.01927769803297,116.76699323710834"/><text text-anchor="middle" pointer-events="none" font-size="8px" fill="#000000" x="213.24680966379273" y="120.98822137823338" font-family="sans-serif">WRITE_DACL</text></g><g class="relationship" transform="translate(-412.1102424463292 256.31573117558287) rotate(361.59872919495587)"><path class="outline" fill="#A5ABB6" stroke="none" d="M 9.869798890956295,38.766442574113995 L 10.835724717245364,38.50762352901147 A 209.3235726591577 209.3235726591577 0 0 0 171.0812228035913,189.40855758563885 L 170.88083664419523,190.38827457902138 A 210.3235726591577 210.3235726591577 0 0 1 9.869798890956295,38.766442574113995 Z M 255.6400006081953,190.29214360005986 L 255.4373926433837,189.31288366899207 A 209.3235726591577 209.3235726591577 0 0 0 415.34018543431216,38.0488482416587 L 412.4406541498362,37.27896621800513 L 417.6198320369165,31.411588915156944 L 419.20622714694684,39.075357606530126 L 416.30669586247086,38.305475582876554 A 210.3235726591577 210.3235726591577 0 0 1 255.6400006081953,190.29214360005986"/><text text-anchor="middle" pointer-events="none" font-size="8px" fill="#000000" x="213.26474425097" y="197.15413404371827" font-family="sans-serif">GET_CHANGES_ALL</text></g></g><g class="layer nodes"><g class="node" transform="translate(-412.1102424463292,256.31573117558287)"><circle class="outline" cx="0" cy="0" r="40" fill="#8DCC93" stroke="#5db665" stroke-width="2px"/><text text-anchor="middle" pointer-events="none" font-family="sans-serif" dy="2.5" font-size="40" fill="#2A2C34"/><text text-anchor="middle" pointer-events="none" x="0" y="5" font-size="10px" fill="#2A2C34" font-family="sans-serif"> Group</text></g><g class="node" transform="translate(45.18535159042973,-228.45704825377885)"><circle class="outline" cx="0" cy="0" r="25" fill="#D9C8AE" stroke="#c0a378" stroke-width="2px"/><text text-anchor="middle" pointer-events="none" font-family="sans-serif" dy="1.5625" font-size="25" fill="#2A2C34"/><text text-anchor="middle" pointer-events="none" x="0" y="5" font-size="10px" fill="#2A2C34" font-family="sans-serif"> User</text></g><g class="node" transform="translate(243.245308276621,-81.95243537496248)"><circle class="outline" cx="0" cy="0" r="25" fill="#C990C0" stroke="#b261a5" stroke-width="2px"/><text text-anchor="middle" pointer-events="none" font-family="sans-serif" dy="1.5625" font-size="25" fill="#FFFFFF"/><text text-anchor="middle" pointer-events="none" x="0" y="5" font-size="10px" fill="#FFFFFF" font-family="sans-serif"> OU</text></g><g class="node" transform="translate(386.18755997958044,62.08199566309386)"><circle class="outline" cx="0" cy="0" r="25" fill="#FFC454" stroke="#d7a013" stroke-width="2px"/><text text-anchor="middle" pointer-events="none" font-family="sans-serif" dy="1.5625" font-size="25" fill="#2A2C34"/><text text-anchor="middle" pointer-events="none" x="0" y="5" font-size="10px" fill="#2A2C34" font-family="sans-serif"> GPO</text></g><g class="node" transform="translate(-494.01956915083,-107.37143008987182)"><circle class="outline" cx="0" cy="0" r="25" fill="#F16667" stroke="#eb2728" stroke-width="2px"/><text text-anchor="middle" pointer-events="none" font-family="sans-serif" dy="1.5625" font-size="25" fill="#FFFFFF"/><text text-anchor="middle" pointer-events="none" x="0" y="5" font-size="10px" fill="#FFFFFF" font-family="sans-serif"> Computer</text></g><g class="node" transform="translate(13.684166386813843,268.19979456350364)"><circle class="outline" cx="0" cy="0" r="32.5" fill="#569480" stroke="#447666" stroke-width="2px"/><text text-anchor="middle" pointer-events="none" font-family="sans-serif" dy="2.03125" font-size="32.5" fill="#FFFFFF"/><text text-anchor="middle" pointer-events="none" x="0" y="5" font-size="10px" fill="#FFFFFF" font-family="sans-serif"> Domain</text></g></g></svg>