<svg xmlns="http://www.w3.org/2000/svg" width="568.9953002929688" height="77.1242904663086" viewBox="-512.266357421875 -27.8931884765625 568.9953002929688 77.1242904663086"><title>Neo4j Graph Visualization</title><desc>Created using Neo4j (http://www.neo4j.com/)</desc><g class="layer relationships"><g class="relationship" transform="translate(-483.26636261483026 6.858051266073883) rotate(360.5756934526099)"><path class="outline" fill="#A5ABB6" stroke="none" d="M 25 0.5 L 51.438073149602005 0.5 L 51.438073149602005 -0.5 L 25 -0.5 Z M 108.109948149602 0.5 L 134.548021299204 0.5 L 134.548021299204 3.5 L 141.548021299204 0 L 134.548021299204 -3.5 L 134.548021299204 -0.5 L 108.109948149602 -0.5 Z"/><text text-anchor="middle" pointer-events="none" font-size="8px" fill="#000000" x="79.774010649602" y="3" font-family="sans-serif">MEMBER_OF</text></g><g class="relationship" transform="translate(-309.22712694253426 8.606812190610853) rotate(360.85275755011816)"><path class="outline" fill="#A5ABB6" stroke="none" d="M 32.5 0.5 L 49.95251830391604 0.5 L 49.95251830391604 -0.5 L 32.5 -0.5 Z M 97.14783080391604 0.5 L 114.60034910783207 0.5 L 114.60034910783207 3.5 L 121.60034910783207 0 L 114.60034910783207 -3.5 L 114.60034910783207 -0.5 L 97.14783080391604 -0.5 Z"/><text text-anchor="middle" pointer-events="none" font-size="8px" fill="#000000" x="73.55017455391604" y="3" font-family="sans-serif">ADMIN_TO</text></g><g class="relationship" transform="translate(-155.14384539679952 10.900268807502485) rotate(360.5981265174228)"><path class="outline" fill="#A5ABB6" stroke="none" d="M 32.5 0.5 L 55.85524847823096 0.5 L 55.85524847823096 -0.5 L 32.5 -0.5 Z M 112.52712347823096 0.5 L 135.88237195646192 0.5 L 135.88237195646192 3.5 L 142.88237195646192 0 L 135.88237195646192 -3.5 L 135.88237195646192 -0.5 L 112.52712347823096 -0.5 Z"/><text text-anchor="middle" pointer-events="none" font-size="8px" fill="#000000" x="84.19118597823096" y="3" font-family="sans-serif">MEMBER_OF</text></g></g><g class="layer nodes"><g class="node" transform="translate(-483.26636261483026,6.858051266073883)"><circle class="outline" cx="0" cy="0" r="25" fill="#DA7194" stroke="#cc3c6c" stroke-width="2px"/><text text-anchor="middle" pointer-events="none" font-family="sans-serif" dy="1.5625" font-size="25" fill="#FFFFFF"/><text text-anchor="middle" pointer-events="none" x="0" y="5" font-size="10px" fill="#FFFFFF" font-family="sans-serif"> PiedadF…</text></g><g class="node" transform="translate(20.228970192029966,12.731100728013715)"><circle class="outline" cx="0" cy="0" r="32.5" fill="#FFC454" stroke="#d7a013" stroke-width="2px"/><text text-anchor="middle" pointer-events="none" font-family="sans-serif" dy="2.03125" font-size="32.5" fill="#2A2C34"/><text text-anchor="middle" pointer-events="none" x="0" y="5" font-size="10px" fill="#2A2C34" font-family="sans-serif"> ENTERPRI…</text></g><g class="node" transform="translate(-309.22712694253426,8.606812190610853)"><circle class="outline" cx="0" cy="0" r="32.5" fill="#FFC454" stroke="#d7a013" stroke-width="2px"/><text text-anchor="middle" pointer-events="none" font-family="sans-serif" dy="2.03125" font-size="32.5" fill="#2A2C34"/><text text-anchor="middle" pointer-events="none" font-family="sans-serif" dy="2.03125" font-size="32.5" fill="#2A2C34"/><text text-anchor="middle" pointer-events="none" x="0" y="0" font-size="10px" fill="#2A2C34" font-family="sans-serif"> DOMAIN</text><text text-anchor="middle" pointer-events="none" x="0" y="10" font-size="10px" fill="#2A2C34" font-family="sans-serif"> ADMINS@…</text></g><g class="node" transform="translate(-155.14384539679952,10.900268807502485)"><circle class="outline" cx="0" cy="0" r="32.5" fill="#569480" stroke="#447666" stroke-width="2px"/><text text-anchor="middle" pointer-events="none" font-family="sans-serif" dy="2.03125" font-size="32.5" fill="#FFFFFF"/><text text-anchor="middle" pointer-events="none" x="0" y="5" font-size="10px" fill="#FFFFFF" font-family="sans-serif"> FLLABDC…</text></g></g></svg>