<svg xmlns="http://www.w3.org/2000/svg" width="855.531494140625" height="117.62760162353516" viewBox="-512.3524169921875 18.23786163330078 855.531494140625 117.62760162353516"><title>Neo4j Graph Visualization</title><desc>Created using Neo4j (http://www.neo4j.com/)</desc><g class="layer relationships"><g class="relationship" transform="translate(-468.3523873526883 78.89748685378734) rotate(359.27196991186975)"><path class="outline" fill="#A5ABB6" stroke="none" d="M 34.39101615137755,20.433012701892217 L 34.89101615137755,19.566987298107776 A 218.66041845718678 218.66041845718678 0 0 0 124.18575307606821,47.94208614102723 L 124.09412482233455,48.937879424353525 A 219.66041845718678 219.66041845718678 0 0 1 34.39101615137755,20.433012701892217 Z M 159.18109761452618,49.35191887167659 L 159.11299307234407,48.35424068140972 A 218.66041845718678 218.66041845718678 0 0 0 249.05244547238917,22.094172540310318 L 247.61417117246674,19.461423589463948 L 255.43523874101777,19.176990665632385 L 250.9701445389524,25.604504474772142 L 249.53187023902998,22.971755523925772 A 219.66041845718678 219.66041845718678 0 0 1 159.18109761452618,49.35191887167659"/><text text-anchor="middle" pointer-events="none" font-size="8px" fill="#000000" x="141.6352302319747" y="52.34667124371401" font-family="sans-serif">PATH_0</text></g><g class="relationship" transform="translate(-177.8372835051494 75.20585158818503) rotate(358.77059997964375)"><path class="outline" fill="#A5ABB6" stroke="none" d="M 38.50762352901147,-10.835724717245364 L 38.766442574113995,-9.869798890956295 A 213.22954043856635 213.22954043856635 0 0 1 74.54632163213566,-16.250332411478695 L 74.4553024096301,-17.246181547208835 A 214.22954043856635 214.22954043856635 0 0 0 38.50762352901147,-10.835724717245364 Z M 109.54335146704764,-17.567475167889427 L 109.47058352469449,-16.570126268774516 A 213.22954043856635 213.22954043856635 0 0 1 145.36130355310812,-10.845864809407333 L 144.63804079838891,-7.934354722247063 L 152.2753708822686,-9.643503396255927 L 146.3256538927337,-14.72787825895436 L 145.6023911380145,-11.81636817179409 A 214.22954043856635 214.22954043856635 0 0 0 109.54335146704764,-17.567475167889427"/><text text-anchor="middle" pointer-events="none" font-size="8px" fill="#000000" x="91.9973158228872" y="-14.626459601637833" font-family="sans-serif">PATH_0</text></g><g class="relationship" transform="translate(13.214232782250377 71.10581502019375) rotate(359.45546658856995)"><path class="outline" fill="#A5ABB6" stroke="none" d="M 38.50762352901147,-10.835724717245364 L 38.766442574113995,-9.869798890956295 A 398.57062705273387 398.57062705273387 0 0 1 121.96430014172581,-22.950671416541866 L 121.91422166083102,-23.949416702263534 A 399.57062705273387 399.57062705273387 0 0 0 38.50762352901147,-10.835724717245364 Z M 156.99305989726685,-24.166516056047158 L 156.9553470445114,-23.16722743871128 A 398.57062705273387 398.57062705273387 0 0 1 240.30873766284293,-11.11712360932109 L 239.56820673072275,-8.209957645951743 L 247.21554673272476,-9.873745761602247 L 241.29611223900315,-14.993344893813553 L 240.55558130688297,-12.086178930444206 A 399.57062705273387 399.57062705273387 0 0 0 156.99305989726685,-24.166516056047158"/><text text-anchor="middle" pointer-events="none" font-size="8px" fill="#000000" x="139.45435154415765" y="-20.94312119957368" font-family="sans-serif">PATH_0</text></g><g class="relationship" transform="translate(-468.3523873526883 78.89748685378734) rotate(359.27196991186975)"><path class="outline" fill="#A5ABB6" stroke="none" d="M 40 0.5 L 113.43334154281806 0.5 L 113.43334154281806 -0.5 L 40 -0.5 Z M 170.10521654281806 0.5 L 243.5385580856361 0.5 L 243.5385580856361 3.5 L 250.5385580856361 0 L 243.5385580856361 -3.5 L 243.5385580856361 -0.5 L 170.10521654281806 -0.5 Z"/><text text-anchor="middle" pointer-events="none" font-size="8px" fill="#000000" x="141.76927904281806" y="3" font-family="sans-serif">MEMBER_OF</text></g><g class="relationship" transform="translate(-177.8372835051494 75.20585158818503) rotate(539.2719699118697)"><path class="outline" fill="#A5ABB6" stroke="none" d="M 34.39101615137755,20.433012701892217 L 34.89101615137755,19.566987298107776 A 218.66041845718678 218.66041845718678 0 0 0 111.27040272944399,46.36492488551437 L 111.11970868576192,47.353505335047316 A 219.66041845718678 219.66041845718678 0 0 1 34.39101615137755,20.433012701892217 Z M 172.1892881205721,48.07414929219908 L 172.06196403124804,47.08228812435462 A 218.66041845718678 218.66041845718678 0 0 0 249.05244547238917,22.094172540310318 L 247.61417117246674,19.461423589463948 L 255.43523874101777,19.176990665632385 L 250.9701445389524,25.604504474772142 L 249.53187023902998,22.971755523925772 A 219.66041845718678 219.66041845718678 0 0 1 172.1892881205721,48.07414929219908"/><text text-anchor="middle" pointer-events="none" font-size="8px" fill="#000000" x="141.6352302319747" y="52.34667124371401" transform="rotate(180 141.6352302319747 49.34667124371401)" font-family="sans-serif">GENERIC_ALL</text></g><g class="relationship" transform="translate(-177.8372835051494 75.20585158818503) rotate(358.77059997964375)"><path class="outline" fill="#A5ABB6" stroke="none" d="M 38.50762352901147,10.835724717245364 L 38.766442574113995,9.869798890956295 A 213.22954043856635 213.22954043856635 0 0 0 68.52205164040055,15.61331193203975 L 68.40277990663719,16.60617358077289 A 214.22954043856635 214.22954043856635 0 0 1 38.50762352901147,10.835724717245364 Z M 115.60657893190805,17.03840848428345 L 115.50550850870913,16.043529210424367 A 213.22954043856635 213.22954043856635 0 0 0 145.36130355310812,10.845864809407333 L 144.63804079838891,7.934354722247063 L 152.2753708822686,9.643503396255927 L 146.3256538927337,14.72787825895436 L 145.6023911380145,11.81636817179409 A 214.22954043856635 214.22954043856635 0 0 1 115.60657893190805,17.03840848428345"/><text text-anchor="middle" pointer-events="none" font-size="8px" fill="#000000" x="91.9973158228873" y="20.626459601637833" font-family="sans-serif">ADMIN_TO</text></g><g class="relationship" transform="translate(13.214232782250377 71.10581502019375) rotate(359.45546658856995)"><path class="outline" fill="#A5ABB6" stroke="none" d="M 38.50762352901147,10.835724717245364 L 38.766442574113995,9.869798890956295 A 398.57062705273387 398.57062705273387 0 0 0 111.18754213923944,22.263840416276594 L 111.11042514303263,23.260862466632545 A 399.57062705273387 399.57062705273387 0 0 1 38.50762352901147,10.835724717245364 Z M 167.80455128032494,23.611736633695102 L 167.7397806544223,22.613836455310434 A 398.57062705273387 398.57062705273387 0 0 0 240.30873766284293,11.11712360932109 L 239.56820673072275,8.209957645951743 L 247.21554673272476,9.873745761602247 L 241.29611223900315,14.993344893813553 L 240.55558130688297,12.086178930444206 A 399.57062705273387 399.57062705273387 0 0 1 167.80455128032494,23.611736633695102"/><text text-anchor="middle" pointer-events="none" font-size="8px" fill="#000000" x="139.4543515441578" y="26.94312119957368" font-family="sans-serif">MEMBER_OF</text></g></g><g class="layer nodes"><g class="node" transform="translate(-468.3523873526883,78.89748685378734)"><circle class="outline" cx="0" cy="0" r="40" fill="#D9C8AE" stroke="#c0a378" stroke-width="2px"/><text text-anchor="middle" pointer-events="none" font-family="sans-serif" dy="2.5" font-size="40" fill="#2A2C34"/><text text-anchor="middle" pointer-events="none" x="0" y="5" font-size="10px" fill="#2A2C34" font-family="sans-serif"> PiedadFlatley2…</text></g><g class="node" transform="translate(299.1790771105703,68.38795164403133)"><circle class="outline" cx="0" cy="0" r="40" fill="#8DCC93" stroke="#5db665" stroke-width="2px"/><text text-anchor="middle" pointer-events="none" font-family="sans-serif" dy="2.5" font-size="40" fill="#2A2C34"/><text text-anchor="middle" pointer-events="none" font-family="sans-serif" dy="2.5" font-size="40" fill="#2A2C34"/><text text-anchor="middle" pointer-events="none" font-family="sans-serif" dy="2.5" font-size="40" fill="#2A2C34"/><text text-anchor="middle" pointer-events="none" x="0" y="-5" font-size="10px" fill="#2A2C34" font-family="sans-serif"> ENTERPRISE</text><text text-anchor="middle" pointer-events="none" x="0" y="5" font-size="10px" fill="#2A2C34" font-family="sans-serif"> DOMAIN</text><text text-anchor="middle" pointer-events="none" x="0" y="15" font-size="10px" fill="#2A2C34" font-family="sans-serif"> CONTROLLE…</text></g><g class="node" transform="translate(-177.8372835051494,75.20585158818503)"><circle class="outline" cx="0" cy="0" r="40" fill="#8DCC93" stroke="#5db665" stroke-width="2px"/><text text-anchor="middle" pointer-events="none" font-family="sans-serif" dy="2.5" font-size="40" fill="#2A2C34"/><text text-anchor="middle" pointer-events="none" font-family="sans-serif" dy="2.5" font-size="40" fill="#2A2C34"/><text text-anchor="middle" pointer-events="none" x="0" y="0" font-size="10px" fill="#2A2C34" font-family="sans-serif"> DOMAIN</text><text text-anchor="middle" pointer-events="none" x="0" y="10" font-size="10px" fill="#2A2C34" font-family="sans-serif"> ADMINS@Test…</text></g><g class="node" transform="translate(13.214232782250377,71.10581502019375)"><circle class="outline" cx="0" cy="0" r="40" fill="#F16667" stroke="#eb2728" stroke-width="2px"/><text text-anchor="middle" pointer-events="none" font-family="sans-serif" dy="2.5" font-size="40" fill="#FFFFFF"/><text text-anchor="middle" pointer-events="none" x="0" y="5" font-size="10px" fill="#FFFFFF" font-family="sans-serif"> FLLABDC@Te…</text></g></g></svg>